<svg width="24.000000" height="24.000000" viewBox="0 0 24 24" fill="none" xmlns="http://www.w3.org/2000/svg" xmlns:xlink="http://www.w3.org/1999/xlink">
	<desc>
			Created with Pixso.
	</desc>
	<defs>
		<clipPath id="clip243_86">
			<rect id="Frame" rx="0.000000" width="23.000000" height="23.000000" transform="translate(0.500000 0.500000)" fill="white" fill-opacity="0"/>
		</clipPath>
	</defs>
	<rect id="Frame" rx="0.000000" width="23.000000" height="23.000000" transform="translate(0.500000 0.500000)" fill="#FFFFFF" fill-opacity="0"/>
	<g clip-path="url(#clip243_86)">
		<path id="Vector" d="M19 9C19 5.13 15.86 2 12 2C8.13 2 5 5.13 5 9C5 12.86 8.13 16 12 16C15.86 16 19 12.86 19 9Z" stroke="#1A1A1A" stroke-opacity="1.000000" stroke-width="1.500000" stroke-linejoin="round"/>
		<path id="Vector" d="M19 9C19 5.13 15.86 2 12 2C8.13 2 5 5.13 5 9C5 12.86 8.13 16 12 16C15.86 16 19 12.86 19 9Z" stroke="#000000" stroke-opacity="0.200000" stroke-width="1.500000" stroke-linejoin="round"/>
		<path id="Vector" d="M1 22C2.11 20.17 3.71 18.66 5.64 17.6C7.58 16.55 9.77 16 12 16C14.22 16 16.41 16.55 18.35 17.6C20.28 18.66 21.88 20.17 23 22" stroke="#1A1A1A" stroke-opacity="1.000000" stroke-width="1.500000" stroke-linejoin="round" stroke-linecap="round"/>
		<path id="Vector" d="M1 22C2.11 20.17 3.71 18.66 5.64 17.6C7.58 16.55 9.77 16 12 16C14.22 16 16.41 16.55 18.35 17.6C20.28 18.66 21.88 20.17 23 22" stroke="#000000" stroke-opacity="0.200000" stroke-width="1.500000" stroke-linejoin="round" stroke-linecap="round"/>
	</g>
</svg>
