<svg width="56.000000" height="56.000000" viewBox="0 0 56 56" fill="none" xmlns="http://www.w3.org/2000/svg" xmlns:xlink="http://www.w3.org/1999/xlink">
	<desc>
			Created with Pixso.
	</desc>
	<defs>
		<clipPath id="clip243_277">
			<rect id="Frame" width="56.000000" height="56.000000" fill="white" fill-opacity="0"/>
		</clipPath>
	</defs>
	<rect id="Frame" width="56.000000" height="56.000000" fill="#FFFFFF" fill-opacity="0"/>
	<g clip-path="url(#clip243_277)">
		<path id="Vector" d="M23.52 4.66C12.76 6.85 4.66 16.36 4.66 27.76C4.66 40.78 15.21 51.33 28.23 51.33C39.63 51.33 49.14 43.23 51.33 32.47" stroke="#002B55" stroke-opacity="1.000000" stroke-width="1.500000" stroke-linecap="round"/>
		<path id="Vector" d="M44.18 42C45.08 41.8 45.91 41.49 46.66 41.07M34.27 40.46C35.66 41.07 37 41.52 38.27 41.81M25.32 34.87C26.29 35.55 27.32 36.36 28.32 37.06M7 32.25C7.75 31.89 8.56 31.46 9.47 31.1M15.05 30.33C16.36 30.47 17.83 30.85 19.5 31.55" stroke="#002B55" stroke-opacity="1.000000" stroke-width="1.500000" stroke-linejoin="round" stroke-linecap="round"/>
		<path id="Vector" d="M39.66 12.83C37.73 12.83 36.16 14.4 36.16 16.33C36.16 18.26 37.73 19.83 39.66 19.83C41.59 19.83 43.16 18.26 43.16 16.33C43.16 14.4 41.59 12.83 39.66 12.83Z" stroke="#B0DD1D" stroke-opacity="1.000000" stroke-width="1.500000"/>
		<path id="Vector" d="M51.33 16.12C51.33 22.5 45.89 26.97 40.86 30.02C40.5 30.22 40.08 30.33 39.66 30.33C39.24 30.33 38.83 30.22 38.46 30.02C33.44 26.94 28 22.52 28 16.12C28 9.84 33.35 4.66 39.66 4.66C45.98 4.66 51.33 9.84 51.33 16.12Z" stroke="#B0DD1D" stroke-opacity="1.000000" stroke-width="1.500000"/>
	</g>
</svg>
