<svg width="92.500000" height="91.561523" viewBox="0 0 92.5 91.5615" fill="none" xmlns="http://www.w3.org/2000/svg" xmlns:xlink="http://www.w3.org/1999/xlink">
	<desc>
			Created with Pixso.
	</desc>
	<defs>
		<clipPath id="clip259_272">
			<rect id="Frame" rx="0.000000" width="32.160591" height="51.228069" transform="translate(30.270800 6.456346)" fill="white" fill-opacity="0"/>
		</clipPath>
		<clipPath id="clip259_271">
			<rect id="Frame" rx="0.000000" width="91.298248" height="63.859653" transform="translate(0.350877 0.350877)" fill="white" fill-opacity="0"/>
		</clipPath>
	</defs>
	<g opacity="0.500000">
		<rect id="Frame" rx="0.000000" width="91.298248" height="63.859653" transform="translate(0.350877 0.350877)" fill="#FFFFFF" fill-opacity="0"/>
		<g clip-path="url(#clip259_271)">
			<rect id="Frame" rx="0.000000" width="32.160591" height="51.228069" transform="translate(30.270800 6.456346)" fill="#FFFFFF" fill-opacity="0"/>
			<g clip-path="url(#clip259_272)">
				<path id="Vector" d="M40.59 38.55C40.36 38.55 40.19 38.37 40.19 38.14L40.19 34.41C40.19 34.18 40.36 34 40.59 34C40.82 34 41 34.18 41 34.41L41 38.14C41 38.36 40.81 38.55 40.59 38.55Z" fill="#000000" fill-opacity="1.000000" fill-rule="nonzero"/>
				<path id="Vector" d="M51.78 38.55C51.55 38.55 51.38 38.37 51.38 38.14L51.38 34.41C51.38 34.18 51.55 34 51.78 34C52.01 34 52.19 34.18 52.19 34.41L52.19 38.14C52.19 38.37 52.01 38.55 51.78 38.55Z" fill="#000000" fill-opacity="1.000000" fill-rule="nonzero"/>
				<path id="Vector" d="M30.32 58.03C30.09 58.03 29.91 57.85 29.91 57.62L29.91 54.83C29.91 54.61 30.09 54.43 30.32 54.43L33.8 54.43L33.8 43.12L32.93 43.12C32.7 43.12 32.52 42.95 32.52 42.72L32.52 39.93C32.52 39.7 32.7 39.52 32.93 39.52L34.73 39.52L34.73 33.06L33.86 33.06C33.63 33.06 33.45 32.88 33.45 32.66L33.45 29.87C33.45 29.64 33.63 29.46 33.86 29.46L36.76 29.46L36.76 17.84L35.33 17.84C35.1 17.84 34.92 17.66 34.92 17.43L34.92 14.64C34.92 14.42 35.1 14.24 35.33 14.24L37.11 14.24C38.32 10.44 41.81 7.78 45.78 7.6L45.78 6.51C45.78 6.28 45.96 6.1 46.18 6.1C46.41 6.1 46.59 6.28 46.59 6.51L46.59 7.6C50.57 7.77 54.06 10.44 55.27 14.24L57.05 14.24C57.28 14.24 57.45 14.42 57.45 14.64L57.45 17.43C57.45 17.66 57.28 17.84 57.05 17.84L55.61 17.84L55.61 29.46L58.52 29.46C58.74 29.46 58.92 29.64 58.92 29.87L58.92 32.66C58.92 32.88 58.74 33.06 58.52 33.06L57.64 33.06L57.64 39.52L59.44 39.52C59.67 39.52 59.85 39.7 59.85 39.93L59.85 42.72C59.85 42.95 59.67 43.12 59.44 43.12L58.57 43.12L58.57 54.43L62.37 54.43C62.6 54.43 62.78 54.61 62.78 54.83L62.78 57.62C62.78 57.85 62.6 58.03 62.37 58.03L30.32 58.03ZM61.97 57.22L61.97 55.24L30.73 55.24L30.73 57.22L61.97 57.22ZM57.76 54.43L57.76 43.12L55.92 43.12L55.92 54.43L57.76 54.43ZM55.11 54.43L55.11 43.12L37.27 43.12L37.27 54.43L42.31 54.43L42.31 49.83C42.31 47.69 44.05 45.95 46.19 45.95C48.33 45.95 50.07 47.69 50.07 49.83L50.07 54.43L55.11 54.43ZM49.25 54.43L49.25 49.83C49.25 48.14 47.88 46.76 46.18 46.76C44.49 46.76 43.12 48.14 43.12 49.83L43.12 54.43L49.25 54.43ZM36.46 54.43L36.46 43.12L34.61 43.12L34.61 54.43L36.46 54.43ZM59.04 42.31L59.04 40.33L55.92 40.33L55.92 42.31L59.04 42.31ZM55.11 42.31L55.11 40.33L54.64 40.33L54.64 42.31L55.11 42.31ZM53.83 42.31L53.83 40.33L38.54 40.33L38.54 42.31L53.83 42.31ZM37.73 42.31L37.73 40.33L37.27 40.33L37.27 42.31L37.73 42.31ZM36.46 42.31L36.46 40.33L33.33 40.33L33.33 42.31L36.46 42.31ZM56.83 39.52L56.83 33.06L54.99 33.06L54.99 39.52L56.83 39.52ZM54.18 39.52L54.18 33.06L38.19 33.06L38.19 39.52L43.52 39.52L43.52 36.67C43.52 35.19 44.72 34 46.19 34C47.66 34 48.86 35.19 48.86 36.67L48.86 39.52L54.18 39.52ZM48.04 39.52L48.04 36.67C48.04 35.64 47.21 34.81 46.18 34.81C45.16 34.81 44.33 35.64 44.33 36.67L44.33 39.52L48.04 39.52ZM37.38 39.52L37.38 33.06L35.54 33.06L35.54 39.52L37.38 39.52ZM58.11 32.25L58.11 30.27L54.99 30.27L54.99 32.25L58.11 32.25ZM54.18 32.25L54.18 30.27L53.71 30.27L53.71 32.25L54.18 32.25ZM52.9 32.25L52.9 30.27L39.47 30.27L39.47 32.25L52.9 32.25ZM38.66 32.25L38.66 30.27L38.19 30.27L38.19 32.25L38.66 32.25ZM37.38 32.25L37.38 30.27L34.26 30.27L34.26 32.25L37.38 32.25ZM54.8 29.46L54.8 17.84L37.57 17.84L37.57 29.46L40.25 29.46L40.25 27.42C40.25 26.15 41.29 25.11 42.56 25.11C43.83 25.11 44.86 26.14 44.86 27.42L44.86 29.46L47.51 29.46L47.51 27.42C47.51 26.15 48.54 25.11 49.81 25.11C51.08 25.11 52.11 26.14 52.11 27.42L52.11 29.46L54.8 29.46ZM51.31 29.46L51.31 27.42C51.31 26.59 50.64 25.92 49.82 25.92C49 25.92 48.33 26.59 48.33 27.42L48.33 29.46L51.31 29.46ZM44.06 29.46L44.06 27.42C44.06 26.59 43.39 25.92 42.57 25.92C41.74 25.92 41.07 26.59 41.07 27.42L41.07 29.46L44.06 29.46ZM56.64 17.03L56.64 15.05L35.73 15.05L35.73 17.03L56.64 17.03ZM54.41 14.24C53.93 12.88 53.12 11.65 52.04 10.68C50.66 10.75 49.58 11.89 49.58 13.27C49.58 13.49 49.4 13.67 49.18 13.67C48.95 13.67 48.77 13.49 48.77 13.27C48.77 11.84 47.61 10.68 46.18 10.68C44.76 10.68 43.6 11.84 43.6 13.27C43.6 13.49 43.42 13.67 43.19 13.67C42.96 13.67 42.78 13.49 42.78 13.27C42.78 11.89 41.71 10.75 40.33 10.68C39.26 11.65 38.44 12.88 37.96 14.24L54.41 14.24ZM46.18 9.87C47.43 9.87 48.58 10.55 49.18 11.65C49.6 10.86 50.34 10.26 51.2 10.01C49.72 8.96 47.99 8.4 46.19 8.4C44.39 8.4 42.65 8.96 41.17 10.01C42.02 10.26 42.76 10.86 43.19 11.65C43.79 10.55 44.93 9.87 46.18 9.87Z" fill="#000000" fill-opacity="1.000000" fill-rule="nonzero"/>
				<path id="Vector" d="M43.9 45.19C43.67 45.19 43.49 45.02 43.49 44.79C43.49 44.56 43.67 44.38 43.9 44.38L48.48 44.38C48.71 44.38 48.89 44.56 48.89 44.79C48.89 45.01 48.7 45.19 48.48 45.19L43.9 45.19Z" fill="#000000" fill-opacity="1.000000" fill-rule="nonzero"/>
				<path id="Vector" d="M52.52 52.67C52.29 52.67 52.11 52.49 52.11 52.26L52.11 47.68C52.11 47.45 52.29 47.27 52.52 47.27C52.75 47.27 52.93 47.45 52.93 47.68L52.93 52.26C52.93 52.49 52.75 52.67 52.52 52.67Z" fill="#000000" fill-opacity="1.000000" fill-rule="nonzero"/>
				<path id="Vector" d="M39.85 52.67C39.62 52.67 39.44 52.49 39.44 52.26L39.44 47.68C39.44 47.45 39.62 47.27 39.85 47.27C40.07 47.27 40.25 47.45 40.25 47.68L40.25 52.26C40.25 52.49 40.07 52.67 39.85 52.67Z" fill="#000000" fill-opacity="1.000000" fill-rule="nonzero"/>
				<path id="Vector" d="M46.18 25.54C44.32 25.54 42.8 24.02 42.8 22.16C42.8 20.29 44.32 18.78 46.18 18.78C48.05 18.78 49.57 20.29 49.57 22.16C49.57 24.02 48.05 25.54 46.18 25.54ZM46.19 19.59C45.5 19.6 44.86 19.89 44.38 20.38C43.91 20.88 43.66 21.53 43.68 22.22C43.71 23.59 44.81 24.7 46.18 24.73C46.87 24.71 47.51 24.43 47.98 23.93C48.46 23.43 48.71 22.78 48.69 22.09C48.66 20.72 47.56 19.62 46.19 19.59Z" fill="#000000" fill-opacity="1.000000" fill-rule="nonzero"/>
				<path id="Vector" d="M51.78 24.44C51.55 24.44 51.38 24.26 51.38 24.03L51.38 20.3C51.38 20.07 51.55 19.89 51.78 19.89C52.01 19.89 52.19 20.07 52.19 20.3L52.19 24.03C52.19 24.26 52.01 24.44 51.78 24.44Z" fill="#000000" fill-opacity="1.000000" fill-rule="nonzero"/>
				<path id="Vector" d="M40.59 24.44C40.36 24.44 40.19 24.26 40.19 24.03L40.19 20.3C40.19 20.07 40.36 19.89 40.59 19.89C40.82 19.89 41 20.07 41 20.3L41 24.03C41 24.25 40.81 24.44 40.59 24.44Z" fill="#000000" fill-opacity="1.000000" fill-rule="nonzero"/>
				<path id="Vector" d="M44.97 22.56C44.74 22.56 44.56 22.38 44.56 22.16C44.56 21.93 44.74 21.75 44.97 21.75L45.78 21.75L45.78 20.74C45.78 20.51 45.96 20.33 46.18 20.33C46.41 20.33 46.59 20.51 46.59 20.74L46.59 22.16C46.59 22.38 46.41 22.56 46.18 22.56L44.97 22.56Z" fill="#000000" fill-opacity="1.000000" fill-rule="nonzero"/>
			</g>
		</g>
	</g>
	<path id="Coimbatore" d="M1.19 72.04Q0.78 72.98 0.78 74.11Q0.78 75.25 1.2 76.2Q1.31 76.44 1.44 76.67Q1.8 77.29 2.31 77.76Q2.73 78.16 3.24 78.44Q3.56 78.63 3.91 78.76Q4.77 79.08 5.75 79.08Q6.94 79.08 7.94 78.63Q8.23 78.5 8.51 78.33Q8.97 78.04 9.33 77.66Q9.93 77.04 10.27 76.17L8.35 76.17Q8.05 76.77 7.58 77.13Q7.44 77.23 7.3 77.32Q6.63 77.69 5.75 77.69Q4.92 77.69 4.24 77.37Q4.13 77.32 4.02 77.25Q3.76 77.1 3.54 76.9Q3.12 76.53 2.84 76Q2.41 75.19 2.41 74.11Q2.41 73.03 2.84 72.22Q3.13 71.68 3.56 71.3Q3.77 71.12 4.02 70.97Q4.12 70.92 4.21 70.87Q4.9 70.54 5.75 70.54Q6.62 70.54 7.28 70.91Q7.29 70.91 7.3 70.92Q7.44 71 7.57 71.1Q8.05 71.46 8.35 72.06L10.27 72.06Q9.93 71.2 9.34 70.58Q8.97 70.19 8.51 69.9Q8.21 69.72 7.89 69.57Q6.92 69.14 5.75 69.14Q4.86 69.14 4.07 69.41Q3.64 69.55 3.24 69.78Q2.71 70.07 2.29 70.48Q1.8 70.94 1.44 71.55Q1.3 71.79 1.19 72.04ZM14.87 78.82Q15.67 79.09 16.57 79.09Q17.51 79.09 18.34 78.79Q18.72 78.66 19.08 78.46Q19.63 78.15 20.06 77.73Q20.54 77.27 20.88 76.68Q21.02 76.44 21.12 76.19Q21.54 75.24 21.54 74.11Q21.54 72.97 21.12 72.02Q21.01 71.78 20.88 71.55Q20.54 70.97 20.08 70.52Q19.64 70.09 19.08 69.78Q18.72 69.57 18.33 69.43Q17.5 69.14 16.57 69.14Q15.68 69.14 14.89 69.41Q14.46 69.55 14.07 69.78Q13.54 70.07 13.11 70.48Q12.62 70.94 12.26 71.55Q12.12 71.79 12.01 72.04Q11.6 72.98 11.6 74.11Q11.6 75.23 12.01 76.18Q12.12 76.43 12.26 76.68Q12.63 77.3 13.13 77.77Q13.55 78.17 14.07 78.46Q14.46 78.68 14.87 78.82ZM68.37 78.82Q69.17 79.09 70.06 79.09Q71 79.09 71.84 78.79Q72.22 78.66 72.57 78.46Q73.12 78.15 73.55 77.73Q74.03 77.27 74.37 76.68Q74.51 76.44 74.62 76.19Q75.03 75.24 75.03 74.11Q75.03 72.97 74.61 72.02Q74.51 71.78 74.37 71.55Q74.04 70.97 73.57 70.52Q73.13 70.09 72.57 69.78Q72.21 69.57 71.82 69.43Q71 69.14 70.06 69.14Q69.18 69.14 68.38 69.41Q67.96 69.55 67.56 69.78Q67.03 70.07 66.6 70.48Q66.11 70.94 65.76 71.55Q65.62 71.79 65.51 72.04Q65.09 72.98 65.09 74.11Q65.09 75.23 65.5 76.18Q65.61 76.43 65.76 76.68Q66.12 77.3 66.62 77.77Q67.04 78.17 67.56 78.46Q67.95 78.68 68.37 78.82ZM49.76 77.01L53.83 77.01L54.53 79L56.22 79L52.73 69.25L50.88 69.25L47.39 79L49.06 79L49.76 77.01ZM87.04 73.41L87.04 70.55L90.82 70.55L90.82 69.25L85.45 69.25L85.45 79L90.82 79L90.82 77.69L87.04 77.69L87.04 74.71L90.4 74.71L90.4 73.41L87.04 73.41ZM24.7 79L24.7 69.26L23.1 69.26L23.1 79L24.7 79ZM37.05 79L37.05 69.26L35.34 69.26L31.94 76.9L28.52 69.26L26.8 69.26L26.8 79L28.4 79L28.4 72.33L31.38 79L32.48 79L35.45 72.33L35.45 79L37.05 79ZM44.81 74.13Q44.6 74.04 44.36 74Q45 73.77 45.42 73.33Q45.49 73.25 45.56 73.17Q45.63 73.08 45.69 72.99Q46.01 72.48 46.01 71.77Q46.01 71.35 45.88 70.98Q45.79 70.73 45.64 70.5Q45.63 70.49 45.62 70.48Q45.26 69.93 44.57 69.6Q43.85 69.26 42.86 69.26L39.15 69.26L39.15 79L43.04 79Q44.01 79 44.73 78.65Q45.39 78.34 45.77 77.82Q45.81 77.77 45.85 77.71Q45.99 77.5 46.08 77.26Q46.23 76.85 46.23 76.38Q46.23 75.96 46.11 75.58Q45.97 75.18 45.69 74.83Q45.31 74.35 44.81 74.13ZM64.01 70.57L64.01 69.26L57.22 69.26L57.22 70.57L59.83 70.57L59.83 79L61.42 79L61.42 70.57L64.01 70.57ZM79.41 75.1L81.65 79L83.56 79L81.15 74.96Q82.19 74.71 82.74 74.04Q82.8 73.98 82.85 73.91Q83.13 73.52 83.26 73.09Q83.4 72.65 83.4 72.18Q83.4 71.59 83.2 71.09Q83.13 70.89 83.02 70.71Q82.98 70.64 82.93 70.57Q82.55 70.01 81.86 69.66Q81.08 69.26 79.96 69.26L76.6 69.26L76.6 79L78.19 79L78.19 75.1L79.41 75.1ZM18.05 77.39Q17.38 77.71 16.57 77.71Q15.74 77.71 15.07 77.38Q14.95 77.33 14.85 77.27Q14.6 77.12 14.38 76.93Q13.95 76.56 13.66 76.01Q13.24 75.19 13.24 74.11Q13.24 73.03 13.66 72.22Q13.95 71.68 14.38 71.3Q14.6 71.12 14.85 70.97Q14.94 70.92 15.03 70.87Q15.72 70.54 16.57 70.54Q17.4 70.54 18.08 70.86Q18.19 70.92 18.29 70.97Q18.55 71.12 18.78 71.32Q19.19 71.69 19.47 72.22Q19.9 73.03 19.9 74.11Q19.9 75.19 19.47 76.01Q19.19 76.54 18.78 76.91Q18.55 77.11 18.29 77.27Q18.17 77.33 18.05 77.39ZM71.54 77.39Q70.88 77.71 70.06 77.71Q69.23 77.71 68.56 77.38Q68.45 77.33 68.34 77.27Q68.09 77.12 67.88 76.93Q67.44 76.56 67.16 76.01Q66.73 75.19 66.73 74.11Q66.73 73.03 67.16 72.22Q67.44 71.68 67.88 71.3Q68.09 71.12 68.34 70.97Q68.43 70.92 68.53 70.87Q69.21 70.54 70.06 70.54Q70.9 70.54 71.58 70.86Q71.68 70.92 71.78 70.97Q72.05 71.12 72.27 71.32Q72.69 71.69 72.96 72.22Q73.39 73.03 73.39 74.11Q73.39 75.19 72.96 76.01Q72.69 76.54 72.27 76.91Q72.05 77.11 71.78 77.27Q71.66 77.33 71.54 77.39ZM42.72 73.35L40.74 73.35L40.74 70.57L42.72 70.57Q43.5 70.57 43.94 70.94Q44.08 71.05 44.18 71.2Q44.38 71.51 44.38 71.97Q44.38 72.45 44.16 72.77Q44.07 72.89 43.94 73Q43.5 73.35 42.72 73.35ZM79.96 73.83L78.19 73.83L78.19 70.57L79.96 70.57Q80.87 70.57 81.32 70.99Q81.41 71.08 81.48 71.18Q81.77 71.57 81.77 72.18Q81.77 72.75 81.5 73.15Q81.42 73.27 81.31 73.38L81.31 73.38Q80.85 73.83 79.96 73.83ZM51.81 71.18L53.39 75.7L50.21 75.7L51.81 71.18ZM44.17 77.3Q43.71 77.69 42.9 77.69L40.74 77.69L40.74 74.65L42.85 74.65Q43.6 74.65 44.08 75.02Q44.11 75.05 44.15 75.07Q44.32 75.23 44.44 75.42Q44.64 75.75 44.64 76.21Q44.64 76.7 44.41 77.03Q44.32 77.18 44.17 77.3Z" fill="#1A1A1A" fill-opacity="1.000000" fill-rule="evenodd"/>
	<path id="Coimbatore" d="M1.19 72.04Q0.78 72.98 0.78 74.11Q0.78 75.25 1.2 76.2Q1.31 76.44 1.44 76.67Q1.8 77.29 2.31 77.76Q2.73 78.16 3.24 78.44Q3.56 78.63 3.91 78.76Q4.77 79.08 5.75 79.08Q6.94 79.08 7.94 78.63Q8.23 78.5 8.51 78.33Q8.97 78.04 9.33 77.66Q9.93 77.04 10.27 76.17L8.35 76.17Q8.05 76.77 7.58 77.13Q7.44 77.23 7.3 77.32Q6.63 77.69 5.75 77.69Q4.92 77.69 4.24 77.37Q4.13 77.32 4.02 77.25Q3.76 77.1 3.54 76.9Q3.12 76.53 2.84 76Q2.41 75.19 2.41 74.11Q2.41 73.03 2.84 72.22Q3.13 71.68 3.56 71.3Q3.77 71.12 4.02 70.97Q4.12 70.92 4.21 70.87Q4.9 70.54 5.75 70.54Q6.62 70.54 7.28 70.91Q7.29 70.91 7.3 70.92Q7.44 71 7.57 71.1Q8.05 71.46 8.35 72.06L10.27 72.06Q9.93 71.2 9.34 70.58Q8.97 70.19 8.51 69.9Q8.21 69.72 7.89 69.57Q6.92 69.14 5.75 69.14Q4.86 69.14 4.07 69.41Q3.64 69.55 3.24 69.78Q2.71 70.07 2.29 70.48Q1.8 70.94 1.44 71.55Q1.3 71.79 1.19 72.04ZM14.87 78.82Q15.67 79.09 16.57 79.09Q17.51 79.09 18.34 78.79Q18.72 78.66 19.08 78.46Q19.63 78.15 20.06 77.73Q20.54 77.27 20.88 76.68Q21.02 76.44 21.12 76.19Q21.54 75.24 21.54 74.11Q21.54 72.97 21.12 72.02Q21.01 71.78 20.88 71.55Q20.54 70.97 20.08 70.52Q19.64 70.09 19.08 69.78Q18.72 69.57 18.33 69.43Q17.5 69.14 16.57 69.14Q15.68 69.14 14.89 69.41Q14.46 69.55 14.07 69.78Q13.54 70.07 13.11 70.48Q12.62 70.94 12.26 71.55Q12.12 71.79 12.01 72.04Q11.6 72.98 11.6 74.11Q11.6 75.23 12.01 76.18Q12.12 76.43 12.26 76.68Q12.63 77.3 13.13 77.77Q13.55 78.17 14.07 78.46Q14.46 78.68 14.87 78.82ZM68.37 78.82Q69.17 79.09 70.06 79.09Q71 79.09 71.84 78.79Q72.22 78.66 72.57 78.46Q73.12 78.15 73.55 77.73Q74.03 77.27 74.37 76.68Q74.51 76.44 74.62 76.19Q75.03 75.24 75.03 74.11Q75.03 72.97 74.61 72.02Q74.51 71.78 74.37 71.55Q74.04 70.97 73.57 70.52Q73.13 70.09 72.57 69.78Q72.21 69.57 71.82 69.43Q71 69.14 70.06 69.14Q69.18 69.14 68.38 69.41Q67.96 69.55 67.56 69.78Q67.03 70.07 66.6 70.48Q66.11 70.94 65.76 71.55Q65.62 71.79 65.51 72.04Q65.09 72.98 65.09 74.11Q65.09 75.23 65.5 76.18Q65.61 76.43 65.76 76.68Q66.12 77.3 66.62 77.77Q67.04 78.17 67.56 78.46Q67.95 78.68 68.37 78.82ZM49.76 77.01L53.83 77.01L54.53 79L56.22 79L52.73 69.25L50.88 69.25L47.39 79L49.06 79L49.76 77.01ZM87.04 73.41L87.04 70.55L90.82 70.55L90.82 69.25L85.45 69.25L85.45 79L90.82 79L90.82 77.69L87.04 77.69L87.04 74.71L90.4 74.71L90.4 73.41L87.04 73.41ZM24.7 79L24.7 69.26L23.1 69.26L23.1 79L24.7 79ZM37.05 79L37.05 69.26L35.34 69.26L31.94 76.9L28.52 69.26L26.8 69.26L26.8 79L28.4 79L28.4 72.33L31.38 79L32.48 79L35.45 72.33L35.45 79L37.05 79ZM44.81 74.13Q44.6 74.04 44.36 74Q45 73.77 45.42 73.33Q45.49 73.25 45.56 73.17Q45.63 73.08 45.69 72.99Q46.01 72.48 46.01 71.77Q46.01 71.35 45.88 70.98Q45.79 70.73 45.64 70.5Q45.63 70.49 45.62 70.48Q45.26 69.93 44.57 69.6Q43.85 69.26 42.86 69.26L39.15 69.26L39.15 79L43.04 79Q44.01 79 44.73 78.65Q45.39 78.34 45.77 77.82Q45.81 77.77 45.85 77.71Q45.99 77.5 46.08 77.26Q46.23 76.85 46.23 76.38Q46.23 75.96 46.11 75.58Q45.97 75.18 45.69 74.83Q45.31 74.35 44.81 74.13ZM64.01 70.57L64.01 69.26L57.22 69.26L57.22 70.57L59.83 70.57L59.83 79L61.42 79L61.42 70.57L64.01 70.57ZM79.41 75.1L81.65 79L83.56 79L81.15 74.96Q82.19 74.71 82.74 74.04Q82.8 73.98 82.85 73.91Q83.13 73.52 83.26 73.09Q83.4 72.65 83.4 72.18Q83.4 71.59 83.2 71.09Q83.13 70.89 83.02 70.71Q82.98 70.64 82.93 70.57Q82.55 70.01 81.86 69.66Q81.08 69.26 79.96 69.26L76.6 69.26L76.6 79L78.19 79L78.19 75.1L79.41 75.1ZM18.05 77.39Q17.38 77.71 16.57 77.71Q15.74 77.71 15.07 77.38Q14.95 77.33 14.85 77.27Q14.6 77.12 14.38 76.93Q13.95 76.56 13.66 76.01Q13.24 75.19 13.24 74.11Q13.24 73.03 13.66 72.22Q13.95 71.68 14.38 71.3Q14.6 71.12 14.85 70.97Q14.94 70.92 15.03 70.87Q15.72 70.54 16.57 70.54Q17.4 70.54 18.08 70.86Q18.19 70.92 18.29 70.97Q18.55 71.12 18.78 71.32Q19.19 71.69 19.47 72.22Q19.9 73.03 19.9 74.11Q19.9 75.19 19.47 76.01Q19.19 76.54 18.78 76.91Q18.55 77.11 18.29 77.27Q18.17 77.33 18.05 77.39ZM71.54 77.39Q70.88 77.71 70.06 77.71Q69.23 77.71 68.56 77.38Q68.45 77.33 68.34 77.27Q68.09 77.12 67.88 76.93Q67.44 76.56 67.16 76.01Q66.73 75.19 66.73 74.11Q66.73 73.03 67.16 72.22Q67.44 71.68 67.88 71.3Q68.09 71.12 68.34 70.97Q68.43 70.92 68.53 70.87Q69.21 70.54 70.06 70.54Q70.9 70.54 71.58 70.86Q71.68 70.92 71.78 70.97Q72.05 71.12 72.27 71.32Q72.69 71.69 72.96 72.22Q73.39 73.03 73.39 74.11Q73.39 75.19 72.96 76.01Q72.69 76.54 72.27 76.91Q72.05 77.11 71.78 77.27Q71.66 77.33 71.54 77.39ZM42.72 73.35L40.74 73.35L40.74 70.57L42.72 70.57Q43.5 70.57 43.94 70.94Q44.08 71.05 44.18 71.2Q44.38 71.51 44.38 71.97Q44.38 72.45 44.16 72.77Q44.07 72.89 43.94 73Q43.5 73.35 42.72 73.35ZM79.96 73.83L78.19 73.83L78.19 70.57L79.96 70.57Q80.87 70.57 81.32 70.99Q81.41 71.08 81.48 71.18Q81.77 71.57 81.77 72.18Q81.77 72.75 81.5 73.15Q81.42 73.27 81.31 73.38L81.31 73.38Q80.85 73.83 79.96 73.83ZM51.81 71.18L53.39 75.7L50.21 75.7L51.81 71.18ZM44.17 77.3Q43.71 77.69 42.9 77.69L40.74 77.69L40.74 74.65L42.85 74.65Q43.6 74.65 44.08 75.02Q44.11 75.05 44.15 75.07Q44.32 75.23 44.44 75.42Q44.64 75.75 44.64 76.21Q44.64 76.7 44.41 77.03Q44.32 77.18 44.17 77.3Z" fill="#000000" fill-opacity="0.200000" fill-rule="evenodd"/>
</svg>
