<svg width="78.520020" height="43.997803" viewBox="0 0 78.52 43.9978" fill="none" xmlns="http://www.w3.org/2000/svg" xmlns:xlink="http://www.w3.org/1999/xlink">
	<desc>
			Created with Pixso.
	</desc>
	<defs/>
	<path id="Vector" d="M5.32 32.7L71.87 36.23L71.76 38.27L5.21 34.74L5.32 32.7Z" fill="#002B55" fill-opacity="1.000000" fill-rule="evenodd"/>
	<path id="Vector" d="M9.89 18.39L13.42 15.84L16.66 18.75L15.51 40.37L8.74 40.02L9.89 18.39ZM18.85 13.83L22.38 11.28L25.62 14.19L24.21 40.84L17.44 40.48L18.85 13.83ZM27.82 9.19L31.35 6.64L34.59 9.55L32.9 41.33L26.13 40.97L27.82 9.19ZM36.79 4.57L40.31 2.02L43.56 4.93L41.6 41.76L34.83 41.4L36.79 4.57ZM45.21 10.11L48.74 7.56L51.98 10.47L50.3 42.25L43.53 41.89L45.21 10.11ZM53.67 15.68L57.2 13.13L60.44 16.04L59.02 42.68L52.25 42.32L53.67 15.68ZM62.1 21.16L65.63 18.61L68.87 21.52L67.72 43.14L60.95 42.79L62.1 21.16ZM70.53 26.64L74.06 24.09L77.3 27L76.42 43.61L69.65 43.25L70.53 26.64ZM0.92 22.95L4.45 20.4L7.69 23.31L6.81 39.91L0.04 39.55L0.92 22.95Z" fill="#002B55" fill-opacity="1.000000" fill-rule="evenodd"/>
	<path id="Vector" d="M0.11 37.73L76.48 41.78L76.37 43.99L0 39.94L0.11 37.73Z" fill="#002B55" fill-opacity="1.000000" fill-rule="evenodd"/>
	<path id="Vector" d="M5.63 26.93L72.17 30.46L72.06 32.5L5.52 28.97L5.63 26.93Z" fill="#002B55" fill-opacity="1.000000" fill-rule="evenodd"/>
	<path id="Vector" d="M14.93 21.64L63.48 24.22L63.37 26.26L14.82 23.69L14.93 21.64Z" fill="#002B55" fill-opacity="1.000000" fill-rule="evenodd"/>
	<path id="Vector" d="M22.81 16.28L56.22 18.05L56.11 20.09L22.7 18.32L22.81 16.28Z" fill="#002B55" fill-opacity="1.000000" fill-rule="evenodd"/>
	<path id="Vector" d="M30.46 10.9L49.17 11.9L49.07 13.94L30.35 12.95L30.46 10.9Z" fill="#002B55" fill-opacity="1.000000" fill-rule="evenodd"/>
</svg>
