<svg width="80.000000" height="83.000000" viewBox="0 0 80 83" fill="none" xmlns="http://www.w3.org/2000/svg" xmlns:xlink="http://www.w3.org/1999/xlink">
	<desc>
			Created with Pixso.
	</desc>
	<defs>
		<clipPath id="clip259_339">
			<rect id="Frame" rx="0.000000" width="79.298248" height="55.438595" transform="translate(0.350877 0.350877)" fill="white" fill-opacity="0"/>
		</clipPath>
	</defs>
	<path id="Mumbai" d="M58.2 77.01L62.27 77.01L62.97 79L64.65 79L61.17 69.25L59.32 69.25L55.83 79L57.5 79L58.2 77.01ZM23.48 79L23.48 69.26L21.77 69.26L18.37 76.9L14.95 69.26L13.23 69.26L13.23 79L14.83 79L14.83 72.33L17.81 79L18.91 79L21.88 72.33L21.88 79L23.48 79ZM27.16 75.47L27.16 69.26L25.56 69.26L25.56 75.44Q25.56 76.63 26.07 77.46Q26.34 77.91 26.72 78.23Q27.04 78.5 27.43 78.69Q27.45 78.69 27.46 78.7Q28.31 79.09 29.34 79.09Q30.35 79.09 31.19 78.72Q31.23 78.7 31.26 78.69Q31.66 78.5 31.98 78.23Q32.37 77.9 32.65 77.46Q33.17 76.63 33.17 75.44L33.17 69.26L31.57 69.26L31.57 75.47Q31.57 76.51 31.05 77.07Q31.02 77.1 30.99 77.13Q30.94 77.18 30.89 77.22Q30.32 77.69 29.36 77.69Q28.42 77.69 27.86 77.23Q27.8 77.19 27.74 77.13Q27.71 77.1 27.68 77.07Q27.16 76.51 27.16 75.47ZM45.48 79L45.48 69.26L43.78 69.26L40.37 76.9L36.96 69.26L35.24 69.26L35.24 79L36.83 79L36.83 72.33L39.82 79L40.92 79L43.89 72.33L43.89 79L45.48 79ZM53.25 74.13Q53.03 74.04 52.79 74Q53.44 73.77 53.86 73.33Q53.93 73.25 54 73.17Q54.07 73.08 54.13 72.99Q54.45 72.48 54.45 71.77Q54.45 71.35 54.31 70.98Q54.23 70.73 54.08 70.5Q54.07 70.49 54.06 70.48Q53.7 69.93 53 69.6Q52.29 69.26 51.3 69.26L47.59 69.26L47.59 79L51.48 79Q52.45 79 53.17 78.65Q53.83 78.34 54.21 77.82Q54.25 77.77 54.28 77.71Q54.42 77.5 54.51 77.26Q54.67 76.85 54.67 76.38Q54.67 75.96 54.54 75.58Q54.41 75.18 54.12 74.83Q53.74 74.35 53.25 74.13ZM67.76 79L67.76 69.26L66.16 69.26L66.16 79L67.76 79ZM51.16 73.35L49.18 73.35L49.18 70.57L51.16 70.57Q51.94 70.57 52.38 70.94Q52.52 71.05 52.61 71.2Q52.82 71.51 52.82 71.97Q52.82 72.45 52.6 72.77Q52.51 72.89 52.38 73Q51.94 73.35 51.16 73.35ZM60.24 71.18L61.82 75.7L58.65 75.7L60.24 71.18ZM52.61 77.3Q52.15 77.69 51.34 77.69L49.18 77.69L49.18 74.65L51.28 74.65Q52.04 74.65 52.51 75.02Q52.55 75.05 52.58 75.07Q52.76 75.23 52.87 75.42Q53.07 75.75 53.07 76.21Q53.07 76.7 52.85 77.03Q52.75 77.18 52.61 77.3Z" fill="#1A1A1A" fill-opacity="1.000000" fill-rule="evenodd"/>
	<path id="Mumbai" d="M58.2 77.01L62.27 77.01L62.97 79L64.65 79L61.17 69.25L59.32 69.25L55.83 79L57.5 79L58.2 77.01ZM23.48 79L23.48 69.26L21.77 69.26L18.37 76.9L14.95 69.26L13.23 69.26L13.23 79L14.83 79L14.83 72.33L17.81 79L18.91 79L21.88 72.33L21.88 79L23.48 79ZM27.16 75.47L27.16 69.26L25.56 69.26L25.56 75.44Q25.56 76.63 26.07 77.46Q26.34 77.91 26.72 78.23Q27.04 78.5 27.43 78.69Q27.45 78.69 27.46 78.7Q28.31 79.09 29.34 79.09Q30.35 79.09 31.19 78.72Q31.23 78.7 31.26 78.69Q31.66 78.5 31.98 78.23Q32.37 77.9 32.65 77.46Q33.17 76.63 33.17 75.44L33.17 69.26L31.57 69.26L31.57 75.47Q31.57 76.51 31.05 77.07Q31.02 77.1 30.99 77.13Q30.94 77.18 30.89 77.22Q30.32 77.69 29.36 77.69Q28.42 77.69 27.86 77.23Q27.8 77.19 27.74 77.13Q27.71 77.1 27.68 77.07Q27.16 76.51 27.16 75.47ZM45.48 79L45.48 69.26L43.78 69.26L40.37 76.9L36.96 69.26L35.24 69.26L35.24 79L36.83 79L36.83 72.33L39.82 79L40.92 79L43.89 72.33L43.89 79L45.48 79ZM53.25 74.13Q53.03 74.04 52.79 74Q53.44 73.77 53.86 73.33Q53.93 73.25 54 73.17Q54.07 73.08 54.13 72.99Q54.45 72.48 54.45 71.77Q54.45 71.35 54.31 70.98Q54.23 70.73 54.08 70.5Q54.07 70.49 54.06 70.48Q53.7 69.93 53 69.6Q52.29 69.26 51.3 69.26L47.59 69.26L47.59 79L51.48 79Q52.45 79 53.17 78.65Q53.83 78.34 54.21 77.82Q54.25 77.77 54.28 77.71Q54.42 77.5 54.51 77.26Q54.67 76.85 54.67 76.38Q54.67 75.96 54.54 75.58Q54.41 75.18 54.12 74.83Q53.74 74.35 53.25 74.13ZM67.76 79L67.76 69.26L66.16 69.26L66.16 79L67.76 79ZM51.16 73.35L49.18 73.35L49.18 70.57L51.16 70.57Q51.94 70.57 52.38 70.94Q52.52 71.05 52.61 71.2Q52.82 71.51 52.82 71.97Q52.82 72.45 52.6 72.77Q52.51 72.89 52.38 73Q51.94 73.35 51.16 73.35ZM60.24 71.18L61.82 75.7L58.65 75.7L60.24 71.18ZM52.61 77.3Q52.15 77.69 51.34 77.69L49.18 77.69L49.18 74.65L51.28 74.65Q52.04 74.65 52.51 75.02Q52.55 75.05 52.58 75.07Q52.76 75.23 52.87 75.42Q53.07 75.75 53.07 76.21Q53.07 76.7 52.85 77.03Q52.75 77.18 52.61 77.3Z" fill="#000000" fill-opacity="0.200000" fill-rule="evenodd"/>
	<g opacity="0.500000">
		<rect id="Frame" rx="0.000000" width="79.298248" height="55.438595" transform="translate(0.350877 0.350877)" fill="#FFFFFF" fill-opacity="0"/>
		<g clip-path="url(#clip259_339)">
			<path id="Vector" d="M10.34 51C10.11 51 10 50.88 10 50.65C10 50.42 10.11 50.3 10.34 50.3L12.81 50.3L12.81 30.25L11.32 30.25C11.14 30.25 11.03 30.19 10.97 30.02L10 27.19C10 27.07 10 26.9 10.05 26.84C10.17 26.72 10.22 26.67 10.34 26.67L12.81 26.67L12.81 22.68L12.24 22.68C12.01 22.68 11.89 22.56 11.89 22.33L11.89 19.5C11.89 19.27 12.01 19.15 12.24 19.15L25.97 19.15L25.97 15.74C25.97 15.51 26.08 15.4 26.31 15.4L26.89 15.4L26.89 8.64C26.89 7.83 27.4 7.13 28.21 6.96L28.32 6.96L28.32 5.34C28.32 5.11 28.44 5 28.67 5C28.9 5 29.01 5.11 29.01 5.34L29.01 6.96L29.13 6.96C29.87 7.13 30.45 7.83 30.45 8.64L30.45 12.51L48.49 12.51L48.49 8.64C48.49 7.83 49 7.13 49.81 6.96L49.92 6.96L49.92 5.34C49.86 5.11 49.98 5 50.21 5C50.44 5 50.55 5.11 50.55 5.34L50.55 6.96L50.67 6.96C51.42 7.13 51.99 7.83 51.99 8.64L51.99 15.4L52.56 15.4C52.79 15.4 52.91 15.51 52.91 15.74L52.91 19.15L66.64 19.15C66.87 19.15 66.98 19.27 66.98 19.5L66.98 22.33C66.98 22.56 66.87 22.68 66.64 22.68L66.07 22.68L66.07 26.67L68.54 26.67C68.65 26.67 68.76 26.72 68.82 26.84L68.88 26.9C68.94 27.01 69 27.07 68.94 27.19L68.02 30.02C67.96 30.13 67.79 30.25 67.67 30.25L66.18 30.25L66.18 50.3L68.65 50.3C68.88 50.3 69 50.42 69 50.65C69 50.88 68.88 51 68.65 51L10.34 51ZM37.11 32.79C34.7 34.29 33.2 36.95 33.2 39.84L33.2 50.36L45.61 50.36L45.61 39.9C45.61 36.89 44.18 34.24 41.71 32.73L39.41 31.29L37.11 32.79ZM58.65 33.37C58.83 33.37 58.94 33.43 59.06 33.48C61.35 34.7 62.73 36.89 62.73 39.44L62.73 50.3L65.2 50.3L65.2 30.25L52.79 30.25L52.79 50.3L54.4 50.3L54.4 39.44C54.4 36.95 55.84 34.64 58.08 33.48C58.31 33.37 58.48 33.37 58.65 33.37ZM58.88 40.88C60.21 41.58 60.89 42.62 60.89 44L60.89 50.24L62.04 50.24L62.04 39.67L55.26 39.67L55.26 50.3L56.41 50.3L56.41 44.06C56.41 41.69 58.48 40.88 58.54 40.88L58.83 40.88L58.88 40.88ZM58.48 41.63C58.02 41.98 57.1 42.62 57.1 44L57.1 50.24L60.15 50.24L60.15 44.06C60.15 43.02 59.63 42.21 58.71 41.58L58.65 41.52L58.48 41.63ZM48.2 50.3L52.16 50.3L52.16 30.25L48.2 30.25L48.2 50.3ZM39.35 30.48C39.41 30.48 39.47 30.48 39.58 30.54L42.11 32.16C44.75 33.83 46.36 36.66 46.36 39.78L46.36 50.3L47.51 50.3L47.51 27.42L31.37 27.42L31.37 50.3L32.52 50.3L32.52 39.9C32.52 36.72 34.07 33.83 36.71 32.16L39.24 30.54C39.24 30.48 39.29 30.48 39.35 30.48ZM26.66 50.3L30.62 50.3L30.62 30.25L26.66 30.25L26.66 50.3ZM20.16 33.43C20.34 33.43 20.45 33.48 20.57 33.54C22.86 34.64 24.24 36.89 24.24 39.38L24.24 50.24L25.85 50.24L25.85 30.25L13.44 30.25L13.44 50.3L16.03 50.3L16.03 39.44C16.14 36.95 17.52 34.7 19.7 33.6C19.88 33.48 20.05 33.43 20.16 33.43ZM20.45 40.88C21.77 41.58 22.46 42.62 22.46 44L22.46 50.24L23.61 50.24L23.61 39.67L16.83 39.67L16.83 50.3L17.98 50.3L17.98 44.06C17.98 41.69 20.05 40.88 20.11 40.88L20.34 40.88C20.39 40.88 20.39 40.88 20.45 40.88ZM20.05 41.63C19.59 41.98 18.67 42.62 18.67 44L18.67 50.24L21.71 50.24L21.71 44.06C21.71 43.02 21.2 42.21 20.28 41.58L20.22 41.52L20.05 41.63ZM58.54 34.01C56.7 34.93 55.49 36.72 55.26 38.8L55.26 38.92L62.1 38.92L62.1 38.8C61.87 36.78 60.66 35.05 58.83 34.01L58.54 34.01ZM20.05 34.01C18.21 34.93 17 36.72 16.77 38.8L16.77 38.92L23.61 38.92L23.61 38.8C23.44 36.78 22.23 35.05 20.34 34.01L20.05 34.01ZM52.91 29.5L67.27 29.5L68.02 27.36L52.91 27.36L52.91 29.5ZM48.2 29.5L52.16 29.5L52.16 27.36L48.2 27.36L48.2 29.5ZM26.66 29.5L30.62 29.5L30.62 27.36L26.66 27.36L26.66 29.5ZM11.6 29.5L25.97 29.5L25.97 27.36L10.86 27.36L11.6 29.5ZM52.91 26.72L65.32 26.72L65.32 22.74L52.91 22.74L52.91 26.72ZM48.2 26.72L52.16 26.72L52.16 22.74L48.2 22.74L48.2 26.72ZM45.44 26.72L47.57 26.72L47.57 22.74L45.44 22.74L45.44 26.72ZM42.63 26.72L44.75 26.72L44.75 22.74L42.63 22.74L42.63 26.72ZM39.81 26.72L41.94 26.72L41.94 22.74L39.81 22.74L39.81 26.72ZM37 26.72L39.12 26.72L39.12 22.74L37 22.74L37 26.72ZM34.18 26.72L36.31 26.72L36.31 22.74L34.18 22.74L34.18 26.72ZM31.37 26.72L33.49 26.72L33.49 22.74L31.37 22.74L31.37 26.72ZM26.66 26.72L30.62 26.72L30.62 22.74L26.66 22.74L26.66 26.72ZM13.5 26.72L25.91 26.72L25.91 22.74L13.5 22.74L13.5 26.72ZM52.91 21.98L66.29 21.98L66.29 19.85L52.91 19.85L52.91 21.98ZM48.2 21.98L52.16 21.98L52.16 16.09L48.2 16.09L48.2 21.98ZM31.37 21.98L47.57 21.98L47.57 16.09L31.37 16.09L31.37 21.98ZM26.66 21.98L30.62 21.98L30.62 16.09L26.66 16.09L26.66 21.98ZM12.58 21.98L25.97 21.98L25.97 19.85L12.58 19.85L12.58 21.98ZM49.18 15.4L51.3 15.4L51.3 10.43L49.18 10.43L49.18 15.4ZM30.39 15.4L48.43 15.4L48.43 13.26L30.39 13.26L30.39 15.4ZM27.57 15.4L29.7 15.4L29.7 10.43L27.57 10.43L27.57 15.4ZM50.21 7.6C49.58 7.6 49.18 8 49.18 8.64L49.18 9.68L51.3 9.68L51.3 8.64C51.24 8 50.84 7.6 50.21 7.6ZM28.67 7.6C28.03 7.6 27.63 8 27.63 8.64L27.63 9.68L29.76 9.68L29.76 8.64C29.7 8 29.3 7.6 28.67 7.6Z" fill="#1A1A1A" fill-opacity="1.000000" fill-rule="nonzero"/>
			<path id="Vector" d="M10.34 51C10.11 51 10 50.88 10 50.65C10 50.42 10.11 50.3 10.34 50.3L12.81 50.3L12.81 30.25L11.32 30.25C11.14 30.25 11.03 30.19 10.97 30.02L10 27.19C10 27.07 10 26.9 10.05 26.84C10.17 26.72 10.22 26.67 10.34 26.67L12.81 26.67L12.81 22.68L12.24 22.68C12.01 22.68 11.89 22.56 11.89 22.33L11.89 19.5C11.89 19.27 12.01 19.15 12.24 19.15L25.97 19.15L25.97 15.74C25.97 15.51 26.08 15.4 26.31 15.4L26.89 15.4L26.89 8.64C26.89 7.83 27.4 7.13 28.21 6.96L28.32 6.96L28.32 5.34C28.32 5.11 28.44 5 28.67 5C28.9 5 29.01 5.11 29.01 5.34L29.01 6.96L29.13 6.96C29.87 7.13 30.45 7.83 30.45 8.64L30.45 12.51L48.49 12.51L48.49 8.64C48.49 7.83 49 7.13 49.81 6.96L49.92 6.96L49.92 5.34C49.86 5.11 49.98 5 50.21 5C50.44 5 50.55 5.11 50.55 5.34L50.55 6.96L50.67 6.96C51.42 7.13 51.99 7.83 51.99 8.64L51.99 15.4L52.56 15.4C52.79 15.4 52.91 15.51 52.91 15.74L52.91 19.15L66.64 19.15C66.87 19.15 66.98 19.27 66.98 19.5L66.98 22.33C66.98 22.56 66.87 22.68 66.64 22.68L66.07 22.68L66.07 26.67L68.54 26.67C68.65 26.67 68.76 26.72 68.82 26.84L68.88 26.9C68.94 27.01 69 27.07 68.94 27.19L68.02 30.02C67.96 30.13 67.79 30.25 67.67 30.25L66.18 30.25L66.18 50.3L68.65 50.3C68.88 50.3 69 50.42 69 50.65C69 50.88 68.88 51 68.65 51L10.34 51ZM37.11 32.79C34.7 34.29 33.2 36.95 33.2 39.84L33.2 50.36L45.61 50.36L45.61 39.9C45.61 36.89 44.18 34.24 41.71 32.73L39.41 31.29L37.11 32.79ZM58.65 33.37C58.83 33.37 58.94 33.43 59.06 33.48C61.35 34.7 62.73 36.89 62.73 39.44L62.73 50.3L65.2 50.3L65.2 30.25L52.79 30.25L52.79 50.3L54.4 50.3L54.4 39.44C54.4 36.95 55.84 34.64 58.08 33.48C58.31 33.37 58.48 33.37 58.65 33.37ZM58.88 40.88C60.21 41.58 60.89 42.62 60.89 44L60.89 50.24L62.04 50.24L62.04 39.67L55.26 39.67L55.26 50.3L56.41 50.3L56.41 44.06C56.41 41.69 58.48 40.88 58.54 40.88L58.83 40.88L58.88 40.88ZM58.48 41.63C58.02 41.98 57.1 42.62 57.1 44L57.1 50.24L60.15 50.24L60.15 44.06C60.15 43.02 59.63 42.21 58.71 41.58L58.65 41.52L58.48 41.63ZM48.2 50.3L52.16 50.3L52.16 30.25L48.2 30.25L48.2 50.3ZM39.35 30.48C39.41 30.48 39.47 30.48 39.58 30.54L42.11 32.16C44.75 33.83 46.36 36.66 46.36 39.78L46.36 50.3L47.51 50.3L47.51 27.42L31.37 27.42L31.37 50.3L32.52 50.3L32.52 39.9C32.52 36.72 34.07 33.83 36.71 32.16L39.24 30.54C39.24 30.48 39.29 30.48 39.35 30.48ZM26.66 50.3L30.62 50.3L30.62 30.25L26.66 30.25L26.66 50.3ZM20.16 33.43C20.34 33.43 20.45 33.48 20.57 33.54C22.86 34.64 24.24 36.89 24.24 39.38L24.24 50.24L25.85 50.24L25.85 30.25L13.44 30.25L13.44 50.3L16.03 50.3L16.03 39.44C16.14 36.95 17.52 34.7 19.7 33.6C19.88 33.48 20.05 33.43 20.16 33.43ZM20.45 40.88C21.77 41.58 22.46 42.62 22.46 44L22.46 50.24L23.61 50.24L23.61 39.67L16.83 39.67L16.83 50.3L17.98 50.3L17.98 44.06C17.98 41.69 20.05 40.88 20.11 40.88L20.34 40.88C20.39 40.88 20.39 40.88 20.45 40.88ZM20.05 41.63C19.59 41.98 18.67 42.62 18.67 44L18.67 50.24L21.71 50.24L21.71 44.06C21.71 43.02 21.2 42.21 20.28 41.58L20.22 41.52L20.05 41.63ZM58.54 34.01C56.7 34.93 55.49 36.72 55.26 38.8L55.26 38.92L62.1 38.92L62.1 38.8C61.87 36.78 60.66 35.05 58.83 34.01L58.54 34.01ZM20.05 34.01C18.21 34.93 17 36.72 16.77 38.8L16.77 38.92L23.61 38.92L23.61 38.8C23.44 36.78 22.23 35.05 20.34 34.01L20.05 34.01ZM52.91 29.5L67.27 29.5L68.02 27.36L52.91 27.36L52.91 29.5ZM48.2 29.5L52.16 29.5L52.16 27.36L48.2 27.36L48.2 29.5ZM26.66 29.5L30.62 29.5L30.62 27.36L26.66 27.36L26.66 29.5ZM11.6 29.5L25.97 29.5L25.97 27.36L10.86 27.36L11.6 29.5ZM52.91 26.72L65.32 26.72L65.32 22.74L52.91 22.74L52.91 26.72ZM48.2 26.72L52.16 26.72L52.16 22.74L48.2 22.74L48.2 26.72ZM45.44 26.72L47.57 26.72L47.57 22.74L45.44 22.74L45.44 26.72ZM42.63 26.72L44.75 26.72L44.75 22.74L42.63 22.74L42.63 26.72ZM39.81 26.72L41.94 26.72L41.94 22.74L39.81 22.74L39.81 26.72ZM37 26.72L39.12 26.72L39.12 22.74L37 22.74L37 26.72ZM34.18 26.72L36.31 26.72L36.31 22.74L34.18 22.74L34.18 26.72ZM31.37 26.72L33.49 26.72L33.49 22.74L31.37 22.74L31.37 26.72ZM26.66 26.72L30.62 26.72L30.62 22.74L26.66 22.74L26.66 26.72ZM13.5 26.72L25.91 26.72L25.91 22.74L13.5 22.74L13.5 26.72ZM52.91 21.98L66.29 21.98L66.29 19.85L52.91 19.85L52.91 21.98ZM48.2 21.98L52.16 21.98L52.16 16.09L48.2 16.09L48.2 21.98ZM31.37 21.98L47.57 21.98L47.57 16.09L31.37 16.09L31.37 21.98ZM26.66 21.98L30.62 21.98L30.62 16.09L26.66 16.09L26.66 21.98ZM12.58 21.98L25.97 21.98L25.97 19.85L12.58 19.85L12.58 21.98ZM49.18 15.4L51.3 15.4L51.3 10.43L49.18 10.43L49.18 15.4ZM30.39 15.4L48.43 15.4L48.43 13.26L30.39 13.26L30.39 15.4ZM27.57 15.4L29.7 15.4L29.7 10.43L27.57 10.43L27.57 15.4ZM50.21 7.6C49.58 7.6 49.18 8 49.18 8.64L49.18 9.68L51.3 9.68L51.3 8.64C51.24 8 50.84 7.6 50.21 7.6ZM28.67 7.6C28.03 7.6 27.63 8 27.63 8.64L27.63 9.68L29.76 9.68L29.76 8.64C29.7 8 29.3 7.6 28.67 7.6Z" fill="#000000" fill-opacity="0.200000" fill-rule="nonzero"/>
		</g>
	</g>
</svg>
