<svg width="80.000000" height="83.000000" viewBox="0 0 80 83" fill="none" xmlns="http://www.w3.org/2000/svg" xmlns:xlink="http://www.w3.org/1999/xlink">
	<desc>
			Created with Pixso.
	</desc>
	<defs>
		<clipPath id="clip259_320">
			<rect id="Frame" rx="0.000000" width="79.298248" height="55.438595" transform="translate(0.350877 0.350877)" fill="white" fill-opacity="0"/>
		</clipPath>
	</defs>
	<path id="goa" d="M30.65 71.23Q31.05 71.56 31.31 72.06L33.23 72.06Q32.89 71.2 32.3 70.58Q31.93 70.19 31.47 69.9Q31.17 69.72 30.85 69.57Q29.88 69.14 28.71 69.14Q27.82 69.14 27.03 69.41Q26.6 69.55 26.2 69.78Q25.67 70.07 25.25 70.48Q24.76 70.94 24.4 71.55Q24.26 71.79 24.15 72.04Q23.74 72.98 23.74 74.11Q23.74 75.25 24.16 76.2Q24.27 76.44 24.4 76.67Q24.76 77.29 25.27 77.76Q25.69 78.16 26.2 78.44Q26.52 78.63 26.87 78.76Q27.73 79.08 28.71 79.08Q29.7 79.08 30.55 78.74Q30.79 78.64 31.02 78.51Q31.7 78.14 32.21 77.61Q32.49 77.33 32.72 77Q33.07 76.48 33.28 75.91Q33.45 75.43 33.52 74.91L33.52 73.66L28.16 73.66L28.16 74.93L31.81 74.93Q31.67 75.93 31.12 76.59Q30.98 76.76 30.82 76.91Q30.68 77.03 30.53 77.14Q29.79 77.64 28.71 77.64Q27.86 77.64 27.17 77.3Q27.08 77.26 26.98 77.2Q26.71 77.05 26.48 76.84Q26.07 76.48 25.8 75.97Q25.37 75.16 25.37 74.11Q25.37 73.06 25.8 72.26Q26.07 71.76 26.47 71.4Q26.7 71.19 26.98 71.03Q27.08 70.98 27.17 70.93Q27.86 70.59 28.71 70.59Q29.59 70.59 30.26 70.97Q30.47 71.08 30.65 71.23ZM37.83 78.82Q38.63 79.09 39.53 79.09Q40.47 79.09 41.3 78.79Q41.68 78.66 42.04 78.46Q42.59 78.15 43.02 77.73Q43.5 77.27 43.84 76.68Q43.98 76.44 44.08 76.19Q44.5 75.24 44.5 74.11Q44.5 72.97 44.08 72.02Q43.97 71.78 43.84 71.55Q43.5 70.97 43.04 70.52Q42.6 70.09 42.04 69.78Q41.68 69.57 41.29 69.43Q40.46 69.14 39.53 69.14Q38.64 69.14 37.85 69.41Q37.42 69.55 37.03 69.78Q36.5 70.07 36.07 70.48Q35.58 70.94 35.22 71.55Q35.08 71.79 34.97 72.04Q34.56 72.98 34.56 74.11Q34.56 75.23 34.97 76.18Q35.08 76.43 35.22 76.68Q35.59 77.3 36.09 77.77Q36.51 78.17 37.03 78.46Q37.42 78.68 37.83 78.82ZM47.86 77.01L51.93 77.01L52.63 79L54.31 79L50.83 69.25L48.98 69.25L45.49 79L47.16 79L47.86 77.01ZM41.01 77.39Q40.34 77.71 39.53 77.71Q38.7 77.71 38.03 77.38Q37.91 77.33 37.81 77.27Q37.56 77.12 37.34 76.93Q36.91 76.56 36.62 76.01Q36.2 75.19 36.2 74.11Q36.2 73.03 36.62 72.22Q36.91 71.68 37.34 71.3Q37.56 71.12 37.81 70.97Q37.9 70.92 37.99 70.87Q38.68 70.54 39.53 70.54Q40.36 70.54 41.04 70.86Q41.15 70.92 41.25 70.97Q41.51 71.12 41.74 71.32Q42.15 71.69 42.43 72.22Q42.86 73.03 42.86 74.11Q42.86 75.19 42.43 76.01Q42.15 76.54 41.74 76.91Q41.51 77.11 41.25 77.27Q41.13 77.33 41.01 77.39ZM49.9 71.18L51.48 75.7L48.31 75.7L49.9 71.18Z" fill="#1A1A1A" fill-opacity="1.000000" fill-rule="evenodd"/>
	<path id="goa" d="M30.65 71.23Q31.05 71.56 31.31 72.06L33.23 72.06Q32.89 71.2 32.3 70.58Q31.93 70.19 31.47 69.9Q31.17 69.72 30.85 69.57Q29.88 69.14 28.71 69.14Q27.82 69.14 27.03 69.41Q26.6 69.55 26.2 69.78Q25.67 70.07 25.25 70.48Q24.76 70.94 24.4 71.55Q24.26 71.79 24.15 72.04Q23.74 72.98 23.74 74.11Q23.74 75.25 24.16 76.2Q24.27 76.44 24.4 76.67Q24.76 77.29 25.27 77.76Q25.69 78.16 26.2 78.44Q26.52 78.63 26.87 78.76Q27.73 79.08 28.71 79.08Q29.7 79.08 30.55 78.74Q30.79 78.64 31.02 78.51Q31.7 78.14 32.21 77.61Q32.49 77.33 32.72 77Q33.07 76.48 33.28 75.91Q33.45 75.43 33.52 74.91L33.52 73.66L28.16 73.66L28.16 74.93L31.81 74.93Q31.67 75.93 31.12 76.59Q30.98 76.76 30.82 76.91Q30.68 77.03 30.53 77.14Q29.79 77.64 28.71 77.64Q27.86 77.64 27.17 77.3Q27.08 77.26 26.98 77.2Q26.71 77.05 26.48 76.84Q26.07 76.48 25.8 75.97Q25.37 75.16 25.37 74.11Q25.37 73.06 25.8 72.26Q26.07 71.76 26.47 71.4Q26.7 71.19 26.98 71.03Q27.08 70.98 27.17 70.93Q27.86 70.59 28.71 70.59Q29.59 70.59 30.26 70.97Q30.47 71.08 30.65 71.23ZM37.83 78.82Q38.63 79.09 39.53 79.09Q40.47 79.09 41.3 78.79Q41.68 78.66 42.04 78.46Q42.59 78.15 43.02 77.73Q43.5 77.27 43.84 76.68Q43.98 76.44 44.08 76.19Q44.5 75.24 44.5 74.11Q44.5 72.97 44.08 72.02Q43.97 71.78 43.84 71.55Q43.5 70.97 43.04 70.52Q42.6 70.09 42.04 69.78Q41.68 69.57 41.29 69.43Q40.46 69.14 39.53 69.14Q38.64 69.14 37.85 69.41Q37.42 69.55 37.03 69.78Q36.5 70.07 36.07 70.48Q35.58 70.94 35.22 71.55Q35.08 71.79 34.97 72.04Q34.56 72.98 34.56 74.11Q34.56 75.23 34.97 76.18Q35.08 76.43 35.22 76.68Q35.59 77.3 36.09 77.77Q36.51 78.17 37.03 78.46Q37.42 78.68 37.83 78.82ZM47.86 77.01L51.93 77.01L52.63 79L54.31 79L50.83 69.25L48.98 69.25L45.49 79L47.16 79L47.86 77.01ZM41.01 77.39Q40.34 77.71 39.53 77.71Q38.7 77.71 38.03 77.38Q37.91 77.33 37.81 77.27Q37.56 77.12 37.34 76.93Q36.91 76.56 36.62 76.01Q36.2 75.19 36.2 74.11Q36.2 73.03 36.62 72.22Q36.91 71.68 37.34 71.3Q37.56 71.12 37.81 70.97Q37.9 70.92 37.99 70.87Q38.68 70.54 39.53 70.54Q40.36 70.54 41.04 70.86Q41.15 70.92 41.25 70.97Q41.51 71.12 41.74 71.32Q42.15 71.69 42.43 72.22Q42.86 73.03 42.86 74.11Q42.86 75.19 42.43 76.01Q42.15 76.54 41.74 76.91Q41.51 77.11 41.25 77.27Q41.13 77.33 41.01 77.39ZM49.9 71.18L51.48 75.7L48.31 75.7L49.9 71.18Z" fill="#000000" fill-opacity="0.200000" fill-rule="evenodd"/>
	<g opacity="0.500000">
		<rect id="Frame" rx="0.000000" width="79.298248" height="55.438595" transform="translate(0.350877 0.350877)" fill="#FFFFFF" fill-opacity="0"/>
		<g clip-path="url(#clip259_320)">
			<path id="Vector" d="M38.09 52.86C35.81 52.86 33.71 52.78 31.69 52.6C29.85 52.43 28 52.16 26.34 51.9C25.46 51.72 24.58 51.55 23.71 51.37C23.35 51.29 22.92 51.2 22.56 51.11C22.13 51.02 22.04 50.85 22.04 50.41C22.04 50.14 22.13 49.97 22.13 49.71C22.13 49.44 22.21 49.09 22.21 48.83C22.21 48.57 22.21 48.3 22.13 48.13C21.95 47.95 21.78 47.95 21.42 47.95C19.58 47.95 17.74 47.95 15.99 47.95L4.93 47.95C4.85 47.95 4.76 47.95 4.67 47.95C4.5 47.69 4.41 47.6 4.41 47.34C4.5 47.07 4.58 46.99 4.76 46.99L5.2 46.99L11.95 46.99C15.2 46.99 18.44 46.99 21.6 46.99C22.13 46.99 22.39 46.72 22.39 46.29C22.56 44.27 22.74 42.25 22.92 40.23L23.18 37.43C23.27 36.11 23.44 34.79 23.53 33.48C23.62 32.69 23.62 31.9 23.71 31.11C23.79 30.5 23.79 29.79 23.88 29.18C23.97 28.48 23.97 27.78 24.06 27.16C24.14 25.85 24.23 24.53 24.32 23.3C24.41 21.99 24.41 20.67 24.5 19.35C24.5 18.74 24.5 18.04 24.58 17.43C24.58 17.25 24.58 17.07 24.41 16.99C24.32 16.9 24.14 16.81 23.97 16.81C23.79 16.81 23.71 16.81 23.62 16.81C23.53 16.81 23.35 16.81 23.27 16.81C22.92 16.81 22.92 16.64 22.92 16.55C22.92 16.29 23 16.11 23.18 16.11L27.3 14.53C27.39 14.53 27.48 14.44 27.56 14.44C27.74 14.35 27.92 14.35 28.18 14.18C28.35 14.09 28.53 13.83 28.53 13.57C28.53 13.04 28.53 12.6 28.53 12.07L28.53 11.37C28.53 10.93 28.62 10.76 29.14 10.76C29.23 10.76 29.32 10.76 29.41 10.76C29.5 10.76 29.58 10.76 29.67 10.76C29.76 10.76 29.85 10.76 29.85 10.76C30.02 10.76 30.2 10.76 30.28 10.76C31.25 10.76 32.04 10.41 32.74 10.06C32.92 9.97 33.18 9.97 33.44 9.97C33.62 9.97 33.79 9.97 33.97 9.97L34.06 9.97C34.32 9.97 34.5 9.97 34.58 9.97C34.76 9.97 35.02 9.97 35.11 9.79C35.28 9.62 35.28 9.27 35.28 8.74C35.2 7.43 35.81 6.37 37.04 5.5C37.3 5.32 37.56 5.06 37.48 4.62C37.48 4.44 37.48 4.18 37.48 3.92C37.48 3.65 37.65 3.57 37.83 3.48C38 3.48 38.09 3.57 38.18 3.65C38.18 3.74 38.27 3.74 38.27 3.83C38.09 4.88 38.71 5.41 39.41 5.93C40.28 6.72 40.72 7.6 40.64 8.65C40.64 9.18 40.64 9.79 40.64 10.32C40.64 10.67 40.64 11.02 40.64 11.46C40.64 11.64 40.64 11.9 40.81 12.07C40.9 12.16 41.07 12.25 41.34 12.25C41.69 12.25 41.86 12.25 42.13 12.25L43.09 12.25L43.44 12.25C43.71 12.25 43.79 12.34 43.88 12.6C43.97 12.78 44.14 13.04 44.32 13.04C45.46 13.48 46.69 14.09 47.56 15.14C47.92 15.67 48.27 16.2 48.53 16.81C48.71 17.16 48.88 17.43 49.41 17.43C49.76 17.43 50.11 17.43 50.46 17.51C50.64 17.51 50.9 17.51 51.07 17.6C51.34 17.6 51.42 17.69 51.42 17.95L51.51 18.74C51.6 19.62 51.69 20.5 51.78 21.37C52.04 23.92 52.3 26.46 52.56 29.09L52.74 30.5C52.74 30.67 52.74 30.76 52.74 30.93L52.74 31.2C52.83 31.99 52.92 32.07 53.71 32.07L61.69 32.07L62.65 32.07C62.92 32.07 63.09 32.07 63.35 32.07C63.62 32.07 63.88 32.16 63.97 32.25C66.07 33.92 68.18 35.5 70.28 37.16L71.78 38.39L71.86 38.48L71.86 38.57C71.86 38.65 71.95 38.92 71.95 38.92C71.95 39 71.69 39.09 71.6 39.18C71.25 39.18 70.99 39.18 70.64 39.18L69.14 39.18L69.14 47.07L73.79 47.07C74.58 47.07 74.58 47.34 74.58 47.51C74.58 47.69 74.5 47.78 74.5 47.78C74.41 47.86 74.23 47.95 73.79 47.95C72.92 47.95 72.04 47.95 71.16 47.95C70.28 47.95 69.41 47.95 68.53 47.95C67.3 47.95 66.16 47.95 64.93 47.95C64.76 47.95 64.67 47.95 64.5 47.95C63 47.95 61.51 48.13 60.11 48.3L59.41 48.39C59.06 48.39 58.79 48.48 58.44 48.48C57.48 48.57 56.51 48.74 55.55 48.74C55.37 48.74 55.2 48.74 54.93 48.74C54.85 48.74 54.76 48.74 54.67 48.74L54.32 48.74L54.41 49.53C54.41 49.88 54.5 50.23 54.5 50.58C54.5 50.93 54.41 51.02 54.06 51.11C51.86 51.81 49.58 52.16 47.65 52.34C44.85 52.69 41.95 52.86 38.79 52.86L38.09 52.86ZM23.27 46.64C23.18 47.6 23.09 48.65 22.92 49.62C22.83 50.06 23.09 50.32 23.53 50.41C23.79 50.41 24.06 50.5 24.32 50.58C24.58 50.67 24.76 50.67 25.02 50.76C25.37 50.85 25.72 50.93 26.16 50.93C27.21 51.11 28.27 51.29 29.23 51.46C31.34 51.64 33.44 51.81 35.46 51.9L35.55 51.9C36.51 51.99 37.48 51.99 38.53 51.99C40.46 51.99 42.56 51.9 45.11 51.64C47.3 51.46 50.2 51.11 53 50.41C53.44 50.32 53.62 50.06 53.53 49.62L53.44 48.39C53.27 46.72 53.09 45.14 52.92 43.48C52.83 42.86 52.56 42.69 52.04 42.69C48.88 42.69 45.72 42.69 42.65 42.69L35.9 42.69C33.62 42.69 23.53 42.69 23.53 42.69C23.53 42.69 23.35 45.85 23.27 46.64ZM55.2 47.78C55.28 47.78 55.46 47.78 55.55 47.78L55.64 47.78C55.81 47.78 55.99 47.69 56.07 47.6C56.25 47.43 56.25 47.25 56.25 47.07L56.25 46.55C56.25 45.93 56.25 45.32 56.25 44.71C56.34 43.65 55.81 43.13 55.2 42.78C55.02 42.6 54.76 42.51 54.58 42.34L54.23 42.07L53.79 42.34L54.32 47.78L55.2 47.78ZM57.13 47.78L57.74 47.69C58 47.69 58.27 47.6 58.62 47.6L59.58 47.51C60.28 47.43 61.07 47.34 61.78 47.25C61.95 47.25 62.21 47.07 62.3 46.81C62.3 46.46 62.3 46.02 62.3 45.67L62.3 45.06L62.04 45.06C61.86 45.06 61.6 45.14 61.42 45.14C60.99 45.23 60.64 45.23 60.2 45.23C59.93 45.23 59.67 45.23 59.41 45.32C59.14 45.32 58.88 45.41 58.62 45.41C58.18 45.41 57.83 45.32 57.56 45.14L57.21 44.88L57.21 47.78L57.13 47.78ZM60.28 39.18C60.2 39.18 60.11 39.18 60.02 39.27L59.85 39.27L59.41 39.35L59.85 39.79C59.93 39.88 59.93 39.88 60.02 39.97L61.16 41.02C62.3 41.99 63.44 43.04 64.58 44.09C64.67 44.18 64.76 44.44 64.76 44.53C64.76 44.62 64.58 44.79 64.32 44.88C64.23 44.88 64.14 44.88 63.97 44.88C63.88 44.88 63.71 44.88 63.62 44.88C63.44 44.88 63.18 45.06 63.09 45.32C63.09 45.67 63.09 46.02 63.09 46.37L63.09 46.99L68.18 46.99L68.27 46.81C68.27 46.72 68.35 46.72 68.35 46.64C68.35 46.64 68.35 41.37 68.35 39.71C68.35 39.53 68.27 39.35 68.18 39.27C68.09 39.18 67.92 39.09 67.74 39.09L60.28 39.18ZM54.14 36.55C54.06 36.55 53.88 36.55 53.79 36.55C53.53 36.64 53.18 36.64 53.27 37.16C53.27 37.51 53.35 37.86 53.35 38.3C53.44 38.83 53.44 39.27 53.53 39.79C53.53 40.06 53.71 40.41 53.88 40.58C54.76 41.37 55.64 42.16 56.51 42.95C57.04 43.39 57.56 43.83 58.09 44.27C58.27 44.35 58.44 44.44 58.62 44.44C59.67 44.36 60.72 44.27 61.78 44.18L62.92 44.09L62.83 43.83L62.83 43.74L62.74 43.57L61.78 42.69C60.99 41.99 60.2 41.2 59.41 40.5C58.71 39.88 58.09 39.35 57.39 38.74C56.86 38.3 56.34 37.86 55.81 37.43L55.72 37.34C55.28 36.99 54.85 36.55 54.14 36.55ZM23.88 40.06C23.88 40.41 23.79 40.67 23.79 41.02C23.79 41.37 23.71 41.64 23.88 41.72C24.06 41.81 24.23 41.9 24.58 41.9L52.21 41.9C52.48 41.9 52.56 41.81 52.65 41.72C52.74 41.64 52.83 41.46 52.74 41.2C52.65 40.58 52.65 39.97 52.56 39.44L52.39 37.16C52.21 35.67 52.13 34.18 51.95 32.69C51.86 31.64 51.69 31.55 50.64 31.55L41.07 31.46C40.9 31.46 40.81 31.46 40.72 31.46C40.55 31.46 40.46 31.46 40.28 31.55C40.02 31.55 39.76 31.64 39.58 31.64C36.07 31.64 32.56 31.64 29.14 31.64L25.37 31.64L25.28 31.64C25.2 31.64 25.2 31.64 25.11 31.64C25.02 31.64 24.93 31.64 24.85 31.72C24.76 31.72 24.41 31.99 24.41 32.25C24.41 32.6 24.41 32.95 24.41 33.39L24.41 34.09L28.44 34.09C28.97 34.09 29.5 34.09 30.02 34.09C30.11 34.09 30.37 34.18 30.46 34.35C30.55 34.44 30.46 34.71 30.46 34.71C30.37 34.79 30.11 34.88 29.93 34.88C29.06 34.88 28.18 34.88 27.3 34.88C26.51 34.88 24.85 34.88 24.85 34.88C24.67 34.88 24.14 34.88 24.06 35.5C24.06 36.02 23.97 36.55 23.97 37.07L23.88 38.13C23.88 38.21 23.88 38.3 23.88 38.39L23.97 38.65L25.55 38.65L26.42 38.65C26.6 38.65 26.78 38.74 26.78 38.92C26.86 39.09 26.78 39.27 26.6 39.35C26.51 39.44 26.34 39.44 26.16 39.44C25.81 39.44 25.46 39.44 25.2 39.44L23.79 39.44L23.88 40.06ZM56.69 32.86C56.6 32.86 56.51 32.86 56.42 32.95L55.81 33.13L57.39 34.53C58.53 35.58 59.67 36.55 60.81 37.51C60.9 37.6 60.99 37.6 60.99 37.69C61.25 37.95 61.6 38.3 62.04 38.3C62.3 38.39 62.65 38.39 63.09 38.39C63.35 38.39 63.62 38.39 63.79 38.39C64.06 38.39 64.32 38.39 64.58 38.39L65.11 38.39L64.85 37.86C64.85 37.78 64.76 37.78 64.76 37.78C64.32 37.43 63.88 36.99 63.35 36.64C62.3 35.76 61.25 34.88 60.2 34C59.41 33.21 58.53 32.86 57.65 32.86C57.48 32.86 57.3 32.86 57.04 32.95L56.95 32.95L56.78 32.95C56.69 32.86 56.69 32.86 56.69 32.86ZM54.67 35.76C55.02 35.76 55.37 35.85 55.64 36.11C55.9 36.29 56.07 36.46 56.34 36.72C56.69 37.07 57.13 37.43 57.48 37.78C57.92 38.21 58.35 38.3 58.79 38.3C58.97 38.3 59.14 38.3 59.32 38.3C59.5 38.3 59.58 38.3 59.76 38.3C59.85 38.3 59.85 38.3 59.93 38.3L60.64 38.39L60.02 37.86C59.14 37.07 58.27 36.37 57.48 35.58C56.6 34.79 55.81 34.09 54.93 33.3C54.58 32.95 54.23 32.86 53.71 32.86C53.53 32.86 53.35 32.86 53.18 32.95L53 32.95L53 33.57C53 33.83 53 34.18 53.09 34.44C53.18 35.41 53.27 35.85 54.23 35.85C54.32 35.76 54.67 35.76 54.67 35.76ZM61.95 32.86C61.78 32.86 61.51 32.86 61.34 32.86L60.37 32.86L60.99 33.39C61.07 33.48 61.07 33.48 61.16 33.57C63 35.06 64.76 36.55 66.6 38.13C66.69 38.21 66.95 38.3 67.04 38.3C67.48 38.3 67.92 38.3 68.35 38.3L70.11 38.3L69.67 37.78C69.58 37.69 69.58 37.69 69.5 37.6C68.97 37.16 68.44 36.81 67.92 36.37C66.78 35.5 65.55 34.53 64.41 33.57C63.62 32.95 62.83 32.86 61.95 32.86ZM42.48 30.76C45.37 30.76 48.18 30.76 51.07 30.76C51.25 30.76 51.51 30.76 51.69 30.58C51.86 30.41 51.86 30.23 51.78 29.97C51.69 28.83 51.51 27.6 51.42 26.46L51.34 25.06L51.25 24.18C51.16 23.57 51.16 22.86 51.07 22.25C50.99 21.55 50.55 21.37 50.11 21.37C48.71 21.37 47.39 21.29 45.99 21.29C44.85 21.29 43.62 21.2 42.48 21.2C40.46 21.11 38.44 21.11 36.42 21.11C33.18 21.11 30.02 21.2 26.95 21.29C26.51 21.29 26.07 21.37 25.72 21.37C25.55 21.37 25.28 21.64 25.2 21.81C25.2 22.16 25.2 22.43 25.2 22.78L25.2 23.39L26.69 23.39C26.95 23.39 27.21 23.39 27.56 23.39C28.09 23.39 28.09 23.57 28.09 23.83C28.09 24 28.09 24.27 27.56 24.27L26.51 24.27C26.25 24.27 25.99 24.27 25.72 24.27C25.2 24.27 25.02 24.44 25.02 24.97C24.93 25.58 24.93 26.29 24.85 26.9C24.76 27.43 24.76 28.04 24.67 28.57C24.67 29 24.58 29.44 24.58 29.88L24.58 30.76L42.48 30.76ZM48.88 18.57C48.79 19.27 48.71 19.79 48.97 20.06C49.23 20.32 49.58 20.41 50.28 20.41C50.37 20.41 50.37 20.41 50.46 20.41L50.81 20.32L50.72 19.71C50.72 19.35 50.64 19.09 50.64 18.74C50.64 18.57 50.37 18.3 50.2 18.3C50.02 18.3 49.85 18.3 49.67 18.3L48.88 18.3L48.88 18.57ZM25.37 18.92C25.37 19.18 25.37 19.53 25.37 19.79C25.37 19.88 25.37 20.14 25.55 20.23C25.64 20.32 25.81 20.41 25.99 20.41C27.83 20.32 29.58 20.23 31.42 20.14C31.78 20.14 31.95 19.97 31.95 19.53C31.95 18.83 31.95 18.13 31.95 17.34C31.95 17.16 31.95 16.99 31.78 16.9C31.6 16.9 31.51 16.81 31.25 16.81C29.58 16.81 27.92 16.72 26.25 16.72L25.9 16.72C25.64 16.72 25.46 16.81 25.37 16.9C25.28 16.99 25.2 17.16 25.2 17.43C25.2 17.69 25.2 17.95 25.2 18.21L25.2 18.83L25.37 18.92ZM46.6 18.3L46.42 18.39L46.42 18.57L46.42 20.32L47.13 20.32C47.21 20.32 47.39 20.32 47.48 20.32C47.65 20.32 48 20.14 48 19.88L48 19.62C48 19.27 48 18.83 47.92 18.48C47.83 18.21 47.56 18.21 47.13 18.21C47.04 18.21 46.86 18.21 46.78 18.21L46.69 18.21L46.6 18.3ZM44.76 20.23C44.85 20.23 44.85 20.23 44.93 20.23L45.02 20.23C45.2 20.23 45.28 20.14 45.37 20.06C45.46 19.97 45.55 19.79 45.55 19.62C45.55 19.53 45.55 19.35 45.55 19.27C45.55 19.09 45.55 18.83 45.55 18.65C45.55 18.48 45.37 18.21 45.2 18.13C44.93 18.04 44.76 18.04 44.67 18.04C43.97 18.04 43.97 18.74 43.97 19L43.97 19.27C43.97 19.35 43.97 19.44 43.97 19.53C43.97 19.79 43.97 19.97 44.14 20.14C44.23 20.23 44.41 20.32 44.67 20.32C44.58 20.32 44.76 20.23 44.76 20.23ZM40.28 20.14C40.99 20.14 41.69 20.14 42.39 20.14C42.56 20.14 42.83 20.14 42.92 19.97C43.09 19.79 43.09 19.62 43.09 19.44C43.09 18.74 43.09 18.04 43.09 17.43C43.09 17.25 43 17.07 42.92 16.99C42.83 16.9 42.65 16.81 42.48 16.81C41.78 16.81 41.16 16.81 40.46 16.81C39.85 16.81 38.62 16.81 38.62 16.81C38.44 16.81 38.27 16.9 38.18 16.99C38 17.16 38 17.34 38 17.51C38 17.95 38 18.3 38 18.74C38 19.09 37.83 19.09 37.65 19.09C37.21 19.09 36.69 19.09 36.25 19.09C35.72 19.09 35.28 19.09 34.76 19.09C34.58 19.09 34.5 19.09 34.5 18.74C34.5 18.57 34.5 18.39 34.5 18.21C34.5 18.13 34.5 17.95 34.5 17.86C34.5 17.69 34.5 17.6 34.5 17.51C34.5 17.25 34.5 17.07 34.41 16.99C34.14 16.81 33.97 16.81 33.53 16.81L33.35 16.81C33.09 16.81 32.92 16.9 32.83 16.99C32.65 17.16 32.65 17.34 32.65 17.51C32.65 18.13 32.65 18.83 32.65 19.44C32.65 19.62 32.65 19.79 32.83 19.97C33 20.14 33.18 20.14 33.35 20.14C34.06 20.14 34.76 20.14 35.46 20.14L37.56 20.14L37.83 20.23L40.28 20.14ZM35.28 18.21L37.13 18.21L37.13 17.95L37.13 17.78C37.13 17.6 37.13 17.43 37.13 17.25C37.13 17.07 36.86 16.81 36.69 16.81C36.51 16.81 36.34 16.81 36.16 16.81L35.28 16.81L35.28 18.21ZM43.88 14.88C43.88 15.5 43.88 16.11 43.88 16.72C43.88 16.9 44.14 17.16 44.41 17.25C45.2 17.34 45.99 17.34 46.78 17.43L47.74 17.51L47.65 17.25C47.39 15.85 45.28 14.35 44.14 14.27L43.88 14.27L43.88 14.88ZM41.34 16.02C41.69 16.02 42.04 16.02 42.39 16.02C42.56 16.02 42.83 16.02 42.92 15.85C43 15.76 43.09 15.58 43.09 15.32C43.09 14.79 43.09 14.35 43.09 13.92C43.09 13.74 43.09 13.48 42.92 13.3C42.74 13.13 42.56 13.13 42.3 13.13C40.55 13.13 38.71 13.13 36.95 13.13L33.35 13.13C33.09 13.13 32.92 13.13 32.65 13.21C31.51 13.65 30.37 14.09 29.23 14.53C28.79 14.71 28.27 14.88 27.83 15.14L26.95 15.5L27.04 15.85L27.21 15.93L27.3 15.93C27.39 15.93 27.48 15.93 27.56 15.93L40.46 15.93L41.34 16.02ZM29.23 11.72L29.23 13.74L31.95 12.78C32.21 12.69 32.48 12.6 32.56 12.34C32.65 12.07 32.56 11.9 32.48 11.72L32.39 11.55L29.23 11.72ZM34.32 10.85C34.14 10.85 33.97 10.85 33.79 10.85C33.62 10.85 33.27 11.11 33.27 11.37C33.27 12.25 33.53 12.25 33.62 12.34C33.79 12.34 34.06 12.43 34.23 12.43C34.5 12.43 34.67 12.43 34.93 12.34C35.2 12.25 35.2 11.99 35.2 11.64C35.2 11.55 35.2 11.46 35.2 11.37C35.2 11.29 35.2 11.2 35.2 11.2L35.11 10.85L34.32 10.85ZM36.07 12.34L37.56 12.34C38.18 12.34 38.71 12.34 39.32 12.34C39.5 12.34 39.76 12.16 39.76 11.99C39.85 11.64 39.85 11.37 39.76 11.11C39.58 10.93 39.32 10.85 38.97 10.85L36.07 10.85L36.07 12.34ZM36.86 8.57C36.6 8.57 36.34 8.57 36.16 8.74C35.99 8.92 36.07 9.18 36.07 9.53C36.07 9.62 36.07 9.71 36.07 9.71L36.16 9.97L39.76 9.97L39.76 8.57L36.86 8.57ZM37.83 6.2C37.3 6.2 36.69 6.81 36.6 7.43L36.51 7.69L39.41 7.69L39.32 7.34C39.06 6.72 38.44 6.2 37.83 6.2Z" fill="#1A1A1A" fill-opacity="1.000000" fill-rule="evenodd"/>
		</g>
	</g>
</svg>
