<svg width="83.000000" height="83.000000" viewBox="0 0 83 83" fill="none" xmlns="http://www.w3.org/2000/svg" xmlns:xlink="http://www.w3.org/1999/xlink">
	<desc>
			Created with Pixso.
	</desc>
	<defs>
		<clipPath id="clip259_312">
			<rect id="Frame" rx="0.000000" width="79.298248" height="55.438595" transform="translate(2.350877 0.350877)" fill="white" fill-opacity="0"/>
		</clipPath>
	</defs>
	<path id="hyderabad" d="M31.05 73.41L31.05 70.55L34.83 70.55L34.83 69.25L29.45 69.25L29.45 79L34.83 79L34.83 77.69L31.05 77.69L31.05 74.71L34.41 74.71L34.41 73.41L31.05 73.41ZM47.43 77.01L51.5 77.01L52.2 79L53.89 79L50.4 69.25L48.55 69.25L45.06 79L46.73 79L47.43 77.01ZM66.01 77.01L70.08 77.01L70.78 79L72.46 79L68.98 69.25L67.13 69.25L63.64 79L65.31 79L66.01 77.01ZM8.96 79L8.96 69.26L7.36 69.26L7.36 73.44L2.78 73.44L2.78 69.26L1.19 69.26L1.19 79L2.78 79L2.78 74.74L7.36 74.74L7.36 79L8.96 79ZM15.05 75.47L18.27 69.26L16.51 69.26L14.25 74.04L12 69.26L10.22 69.26L13.45 75.47L13.45 79L15.05 79L15.05 75.47ZM25.43 69.86Q24.26 69.26 22.71 69.26L19.53 69.26L19.53 79L22.71 79Q24.26 79 25.43 78.41Q26.14 78.06 26.65 77.53Q26.98 77.18 27.24 76.74Q27.87 75.65 27.87 74.17Q27.87 72.68 27.24 71.57Q26.96 71.09 26.59 70.7Q26.09 70.2 25.43 69.86ZM39.6 75.1L41.85 79L43.75 79L41.34 74.96Q42.38 74.71 42.93 74.04Q42.99 73.98 43.04 73.91Q43.32 73.52 43.46 73.09Q43.6 72.65 43.6 72.18Q43.6 71.59 43.39 71.09Q43.32 70.89 43.21 70.71Q43.17 70.64 43.12 70.57Q42.74 70.01 42.05 69.66Q41.27 69.26 40.15 69.26L36.79 69.26L36.79 79L38.39 79L38.39 75.1L39.6 75.1ZM61.06 74.13Q60.84 74.04 60.61 74Q61.25 73.77 61.67 73.33Q61.74 73.25 61.81 73.17Q61.88 73.08 61.94 72.99Q62.26 72.48 62.26 71.77Q62.26 71.35 62.12 70.98Q62.04 70.73 61.89 70.5Q61.88 70.49 61.87 70.48Q61.51 69.93 60.81 69.6Q60.1 69.26 59.11 69.26L55.4 69.26L55.4 79L59.29 79Q60.26 79 60.98 78.65Q61.64 78.34 62.02 77.82Q62.06 77.77 62.1 77.71Q62.24 77.5 62.32 77.26Q62.48 76.85 62.48 76.38Q62.48 75.96 62.36 75.58Q62.22 75.18 61.93 74.83Q61.55 74.35 61.06 74.13ZM79.88 69.86Q78.71 69.26 77.15 69.26L73.97 69.26L73.97 79L77.15 79Q78.71 79 79.88 78.41Q80.58 78.06 81.09 77.53Q81.43 77.18 81.68 76.74Q82.32 75.65 82.32 74.17Q82.32 72.68 81.68 71.57Q81.41 71.09 81.03 70.7Q80.54 70.2 79.88 69.86ZM25.17 76.92Q24.27 77.69 22.71 77.69L21.12 77.69L21.12 70.57L22.71 70.57Q24.22 70.57 25.1 71.31Q25.22 71.41 25.33 71.52Q25.4 71.6 25.47 71.69Q26.23 72.62 26.23 74.17Q26.23 75.69 25.49 76.59Q25.41 76.68 25.33 76.77Q25.25 76.85 25.17 76.92ZM40.15 73.83L38.39 73.83L38.39 70.57L40.15 70.57Q41.06 70.57 41.51 70.99Q41.6 71.08 41.67 71.18Q41.96 71.57 41.96 72.18Q41.96 72.75 41.69 73.15Q41.61 73.27 41.5 73.38L41.5 73.38Q41.05 73.83 40.15 73.83ZM58.97 73.35L56.99 73.35L56.99 70.57L58.97 70.57Q59.75 70.57 60.19 70.94Q60.33 71.05 60.42 71.2Q60.63 71.51 60.63 71.97Q60.63 72.45 60.41 72.77Q60.32 72.89 60.19 73Q59.75 73.35 58.97 73.35ZM79.61 76.92Q78.72 77.69 77.15 77.69L75.57 77.69L75.57 70.57L77.15 70.57Q78.66 70.57 79.55 71.31Q79.66 71.41 79.77 71.52Q79.85 71.6 79.92 71.69Q80.68 72.62 80.68 74.17Q80.68 75.69 79.93 76.59Q79.86 76.68 79.77 76.77Q79.7 76.85 79.61 76.92ZM49.48 71.18L51.06 75.7L47.88 75.7L49.48 71.18ZM68.05 71.18L69.63 75.7L66.46 75.7L68.05 71.18ZM60.42 77.3Q59.96 77.69 59.15 77.69L56.99 77.69L56.99 74.65L59.09 74.65Q59.85 74.65 60.32 75.02Q60.36 75.05 60.39 75.07Q60.57 75.23 60.68 75.42Q60.89 75.75 60.89 76.21Q60.89 76.7 60.66 77.03Q60.56 77.18 60.42 77.3Z" fill="#1A1A1A" fill-opacity="1.000000" fill-rule="evenodd"/>
	<path id="hyderabad" d="M31.05 73.41L31.05 70.55L34.83 70.55L34.83 69.25L29.45 69.25L29.45 79L34.83 79L34.83 77.69L31.05 77.69L31.05 74.71L34.41 74.71L34.41 73.41L31.05 73.41ZM47.43 77.01L51.5 77.01L52.2 79L53.89 79L50.4 69.25L48.55 69.25L45.06 79L46.73 79L47.43 77.01ZM66.01 77.01L70.08 77.01L70.78 79L72.46 79L68.98 69.25L67.13 69.25L63.64 79L65.31 79L66.01 77.01ZM8.96 79L8.96 69.26L7.36 69.26L7.36 73.44L2.78 73.44L2.78 69.26L1.19 69.26L1.19 79L2.78 79L2.78 74.74L7.36 74.74L7.36 79L8.96 79ZM15.05 75.47L18.27 69.26L16.51 69.26L14.25 74.04L12 69.26L10.22 69.26L13.45 75.47L13.45 79L15.05 79L15.05 75.47ZM25.43 69.86Q24.26 69.26 22.71 69.26L19.53 69.26L19.53 79L22.71 79Q24.26 79 25.43 78.41Q26.14 78.06 26.65 77.53Q26.98 77.18 27.24 76.74Q27.87 75.65 27.87 74.17Q27.87 72.68 27.24 71.57Q26.96 71.09 26.59 70.7Q26.09 70.2 25.43 69.86ZM39.6 75.1L41.85 79L43.75 79L41.34 74.96Q42.38 74.71 42.93 74.04Q42.99 73.98 43.04 73.91Q43.32 73.52 43.46 73.09Q43.6 72.65 43.6 72.18Q43.6 71.59 43.39 71.09Q43.32 70.89 43.21 70.71Q43.17 70.64 43.12 70.57Q42.74 70.01 42.05 69.66Q41.27 69.26 40.15 69.26L36.79 69.26L36.79 79L38.39 79L38.39 75.1L39.6 75.1ZM61.06 74.13Q60.84 74.04 60.61 74Q61.25 73.77 61.67 73.33Q61.74 73.25 61.81 73.17Q61.88 73.08 61.94 72.99Q62.26 72.48 62.26 71.77Q62.26 71.35 62.12 70.98Q62.04 70.73 61.89 70.5Q61.88 70.49 61.87 70.48Q61.51 69.93 60.81 69.6Q60.1 69.26 59.11 69.26L55.4 69.26L55.4 79L59.29 79Q60.26 79 60.98 78.65Q61.64 78.34 62.02 77.82Q62.06 77.77 62.1 77.71Q62.24 77.5 62.32 77.26Q62.48 76.85 62.48 76.38Q62.48 75.96 62.36 75.58Q62.22 75.18 61.93 74.83Q61.55 74.35 61.06 74.13ZM79.88 69.86Q78.71 69.26 77.15 69.26L73.97 69.26L73.97 79L77.15 79Q78.71 79 79.88 78.41Q80.58 78.06 81.09 77.53Q81.43 77.18 81.68 76.74Q82.32 75.65 82.32 74.17Q82.32 72.68 81.68 71.57Q81.41 71.09 81.03 70.7Q80.54 70.2 79.88 69.86ZM25.17 76.92Q24.27 77.69 22.71 77.69L21.12 77.69L21.12 70.57L22.71 70.57Q24.22 70.57 25.1 71.31Q25.22 71.41 25.33 71.52Q25.4 71.6 25.47 71.69Q26.23 72.62 26.23 74.17Q26.23 75.69 25.49 76.59Q25.41 76.68 25.33 76.77Q25.25 76.85 25.17 76.92ZM40.15 73.83L38.39 73.83L38.39 70.57L40.15 70.57Q41.06 70.57 41.51 70.99Q41.6 71.08 41.67 71.18Q41.96 71.57 41.96 72.18Q41.96 72.75 41.69 73.15Q41.61 73.27 41.5 73.38L41.5 73.38Q41.05 73.83 40.15 73.83ZM58.97 73.35L56.99 73.35L56.99 70.57L58.97 70.57Q59.75 70.57 60.19 70.94Q60.33 71.05 60.42 71.2Q60.63 71.51 60.63 71.97Q60.63 72.45 60.41 72.77Q60.32 72.89 60.19 73Q59.75 73.35 58.97 73.35ZM79.61 76.92Q78.72 77.69 77.15 77.69L75.57 77.69L75.57 70.57L77.15 70.57Q78.66 70.57 79.55 71.31Q79.66 71.41 79.77 71.52Q79.85 71.6 79.92 71.69Q80.68 72.62 80.68 74.17Q80.68 75.69 79.93 76.59Q79.86 76.68 79.77 76.77Q79.7 76.85 79.61 76.92ZM49.48 71.18L51.06 75.7L47.88 75.7L49.48 71.18ZM68.05 71.18L69.63 75.7L66.46 75.7L68.05 71.18ZM60.42 77.3Q59.96 77.69 59.15 77.69L56.99 77.69L56.99 74.65L59.09 74.65Q59.85 74.65 60.32 75.02Q60.36 75.05 60.39 75.07Q60.57 75.23 60.68 75.42Q60.89 75.75 60.89 76.21Q60.89 76.7 60.66 77.03Q60.56 77.18 60.42 77.3Z" fill="#000000" fill-opacity="0.200000" fill-rule="evenodd"/>
	<g opacity="0.500000">
		<rect id="Frame" rx="0.000000" width="79.298248" height="55.438595" transform="translate(2.350877 0.350877)" fill="#FFFFFF" fill-opacity="0"/>
		<g clip-path="url(#clip259_312)">
			<path id="Vector" d="M49.49 25.37C49.2 25.37 48.97 25.14 48.97 24.85C48.97 24.56 49.2 24.32 49.49 24.32C49.78 24.32 50.01 24.56 50.01 24.85C50.01 25.14 49.78 25.37 49.49 25.37Z" fill="#1A1A1A" fill-opacity="1.000000" fill-rule="nonzero"/>
			<path id="Vector" d="M51.64 47.42C51.41 47.42 51.23 47.25 51.23 47.02L51.23 45.39C51.23 45.16 51.41 44.99 51.64 44.99C51.87 44.99 52.04 45.16 52.04 45.39L52.04 47.02C52.04 47.25 51.87 47.42 51.64 47.42ZM31.61 47.31C31.38 47.31 31.21 47.13 31.21 46.9L31.21 45.34C31.21 45.1 31.38 44.93 31.61 44.93C31.85 44.93 32.02 45.1 32.02 45.34L32.02 46.9C31.96 47.13 31.85 47.31 31.61 47.31ZM51.64 41.21C51.41 41.21 51.23 41.04 51.23 40.81L51.23 39.24C51.23 39.01 51.41 38.83 51.64 38.83C51.87 38.83 52.04 39.01 52.04 39.24L52.04 40.81C52.04 41.04 51.87 41.21 51.64 41.21ZM31.61 41.16C31.38 41.16 31.21 40.98 31.21 40.75L31.21 39.12C31.21 38.89 31.38 38.72 31.61 38.72C31.85 38.72 32.02 38.89 32.02 39.12L32.02 40.75C31.96 40.98 31.85 41.16 31.61 41.16ZM51.64 35.12C51.41 35.12 51.23 34.95 51.23 34.71L51.23 33.09C51.23 32.86 51.41 32.68 51.64 32.68C51.87 32.68 52.04 32.86 52.04 33.09L52.04 34.71C52.04 34.95 51.87 35.12 51.64 35.12ZM31.61 35C31.38 35 31.21 34.83 31.21 34.6L31.21 33.03C31.21 32.8 31.38 32.62 31.61 32.62C31.85 32.62 32.02 32.8 32.02 33.03L32.02 34.6C31.96 34.83 31.85 35 31.61 35ZM27.84 26.3C27.61 26.3 27.43 26.12 27.43 25.89L27.43 23.68C27.43 23.45 27.61 23.28 27.84 23.28C28.07 23.28 28.25 23.45 28.25 23.68L28.25 25.89C28.25 26.12 28.07 26.3 27.84 26.3ZM24.94 26.3C24.71 26.3 24.53 26.12 24.53 25.89L24.53 23.68C24.53 23.45 24.71 23.28 24.94 23.28C25.17 23.28 25.35 23.45 25.35 23.68L25.35 25.89C25.35 26.12 25.17 26.3 24.94 26.3ZM21.86 26.3C21.63 26.3 21.46 26.12 21.46 25.89L21.46 23.68C21.46 23.45 21.63 23.28 21.86 23.28C22.09 23.28 22.27 23.45 22.27 23.68L22.27 25.89C22.27 26.12 22.09 26.3 21.86 26.3Z" fill="#1A1A1A" fill-opacity="1.000000" fill-rule="nonzero"/>
			<path id="Vector" d="M18.84 51.2C18.61 51.2 18.44 51.02 18.44 50.79C18.44 50.56 18.61 50.39 18.84 50.39L20.99 50.39L20.99 29.2L18.84 29.2C18.61 29.2 18.44 29.03 18.44 28.79L18.44 20.84C18.44 20.61 18.61 20.43 18.84 20.43L20.24 20.43L20.24 16.72C20.24 16.49 20.41 16.31 20.64 16.31L21.8 16.31L22.04 13.7L22.04 13.64C21.75 13.47 20.64 11.9 22.21 10.22C23.14 9.29 23.89 8.3 24.47 7.32L24.47 5.4C24.47 5.17 24.65 5 24.88 5C25.11 5 25.29 5.17 25.29 5.4L25.29 7.32C25.87 8.3 26.62 9.29 27.55 10.28C29.12 11.96 28.07 13.47 27.84 13.82L27.84 13.88L28.07 16.49L29.23 16.49C29.47 16.49 29.64 16.66 29.64 16.89L29.64 20.61L53.73 20.61L53.73 16.89C53.73 16.66 53.9 16.49 54.13 16.49L55.3 16.49L55.53 13.88L55.53 13.82C55.3 13.53 54.19 11.96 55.82 10.28C56.75 9.29 57.44 8.36 58.08 7.32L58.08 5.4C58.08 5.17 58.26 5 58.49 5C58.72 5 58.89 5.17 58.89 5.4L58.89 7.32C59.47 8.3 60.23 9.29 61.16 10.28C62.72 11.96 61.68 13.47 61.45 13.82L61.45 13.88L61.68 16.49L62.84 16.49C63.07 16.49 63.25 16.66 63.25 16.89L63.25 20.61L64.64 20.61C64.87 20.61 65.05 20.78 65.05 21.02L65.05 29.03C65.05 29.26 64.87 29.43 64.64 29.43L62.43 29.43L62.43 50.68L64.64 50.68C64.87 50.68 65.05 50.85 65.05 51.08C65.05 51.31 64.87 51.49 64.64 51.49L18.84 51.49L18.84 51.2ZM55.12 50.44L61.33 50.44L61.33 29.2L55.12 29.2L55.12 50.44ZM48.74 50.44L54.31 50.44L54.31 29.2L48.74 29.2L48.74 50.44ZM41.54 40.11C43.63 40.11 45.31 41.79 45.31 43.88L45.31 50.44L47.98 50.44L47.98 29.2L35.1 29.2L35.1 50.44L37.77 50.44L37.77 43.88C37.77 41.79 39.45 40.11 41.54 40.11ZM41.54 40.87C39.86 40.87 38.52 42.2 38.52 43.88L38.52 50.44L44.56 50.44L44.56 43.88C44.56 42.2 43.22 40.87 41.54 40.87ZM28.77 50.44L34.28 50.44L34.28 29.2L28.77 29.2L28.77 50.44ZM21.75 50.44L28.01 50.44L28.01 29.2L21.75 29.2L21.75 50.44ZM52.51 28.44L63.83 28.44L63.83 21.25L52.51 21.25L52.51 28.44ZM31.32 28.44L51.81 28.44L51.81 21.25L31.32 21.25L31.32 24.44L46.41 24.44C46.65 24.44 46.82 24.61 46.82 24.85C46.82 25.08 46.65 25.25 46.41 25.25L31.32 25.25L31.32 28.44ZM19.19 28.44L30.51 28.44L30.51 21.25L19.19 21.25L19.19 28.44ZM54.31 20.49L62.03 20.49L62.03 17.18L54.31 17.18L54.31 20.49ZM20.99 20.49L28.71 20.49L28.71 17.18L20.99 17.18L20.99 20.49ZM58.2 15.21C58.43 15.21 58.6 15.38 58.6 15.62L58.6 16.37L60.58 16.37L60.4 13.99L56.17 13.99L55.99 16.37L57.97 16.37L57.97 15.62C57.85 15.38 58.02 15.21 58.2 15.21ZM24.88 15.27C25.11 15.27 25.29 15.44 25.29 15.68L25.29 16.43L27.26 16.43L27.09 14.05L22.85 14.05L22.67 16.43L24.65 16.43L24.65 15.68C24.47 15.44 24.65 15.27 24.88 15.27ZM58.08 8.25C57.56 9.12 56.86 9.93 56.11 10.74C55.06 11.84 55.59 12.83 55.88 13.24L55.93 13.3L60.58 13.3L60.64 13.24C60.93 12.89 61.45 11.84 60.4 10.74C59.59 9.93 58.95 9.12 58.43 8.25L58.31 8.07L58.08 8.25ZM24.76 8.25C24.24 9.12 23.55 9.93 22.79 10.74C21.75 11.84 22.27 12.83 22.56 13.24L22.62 13.3L27.2 13.3L27.26 13.24C27.55 12.89 28.07 11.84 27.03 10.74C26.22 9.93 25.58 9.12 25.05 8.25L24.94 8.07L24.76 8.25Z" fill="#1A1A1A" fill-opacity="1.000000" fill-rule="nonzero"/>
			<path id="Vector" d="M61.16 26.3C60.93 26.3 60.75 26.12 60.75 25.89L60.75 23.68C60.75 23.45 60.93 23.28 61.16 23.28C61.39 23.28 61.56 23.45 61.56 23.68L61.56 25.89C61.56 26.12 61.39 26.3 61.16 26.3ZM58.25 26.3C58.02 26.3 57.85 26.12 57.85 25.89L57.85 23.68C57.85 23.45 58.02 23.28 58.25 23.28C58.49 23.28 58.66 23.45 58.66 23.68L58.66 25.89C58.66 26.12 58.49 26.3 58.25 26.3ZM55.24 26.3C55 26.3 54.83 26.12 54.83 25.89L54.83 23.68C54.83 23.45 55 23.28 55.24 23.28C55.47 23.28 55.64 23.45 55.64 23.68L55.64 25.89C55.58 26.12 55.41 26.3 55.24 26.3ZM47.52 16.6C47.28 16.6 47.11 16.43 47.11 16.2L47.11 15.56C47.11 15.33 47.28 15.15 47.52 15.15C47.75 15.15 47.92 15.33 47.92 15.56L47.92 16.2C47.87 16.43 47.69 16.6 47.52 16.6ZM48.79 14.63C48.56 14.63 48.39 14.46 48.39 14.22C48.39 13.99 48.56 13.82 48.79 13.82L49.43 13.82C49.66 13.82 49.84 13.99 49.84 14.22C49.84 14.46 49.66 14.63 49.43 14.63L48.79 14.63ZM45.49 14.63C45.25 14.63 45.08 14.46 45.08 14.22C45.08 13.99 45.25 13.82 45.49 13.82L46.12 13.82C46.36 13.82 46.53 13.99 46.53 14.22C46.53 14.46 46.36 14.63 46.12 14.63L45.49 14.63ZM47.52 13.3C47.28 13.3 47.11 13.12 47.11 12.89L47.11 12.25C47.11 12.02 47.28 11.84 47.52 11.84C47.75 11.84 47.92 12.02 47.92 12.25L47.92 12.89C47.87 13.12 47.69 13.3 47.52 13.3ZM35.56 11.61C35.33 11.61 35.15 11.44 35.15 11.21L35.15 10.63C35.15 10.39 35.33 10.22 35.56 10.22C35.79 10.22 35.97 10.39 35.97 10.63L35.97 11.26C35.97 11.44 35.79 11.61 35.56 11.61ZM36.89 9.64C36.66 9.64 36.49 9.46 36.49 9.23C36.49 9 36.66 8.83 36.89 8.83L37.59 8.83C37.82 8.83 38 9 38 9.23C37.94 9.46 37.77 9.64 37.59 9.64L36.89 9.64ZM33.59 9.64C33.35 9.64 33.18 9.46 33.18 9.23C33.18 9 33.35 8.83 33.59 8.83L34.23 8.83C34.46 8.83 34.63 9 34.63 9.23C34.63 9.46 34.46 9.64 34.23 9.64L33.59 9.64ZM35.56 8.3C35.33 8.3 35.15 8.13 35.15 7.9L35.15 7.32C35.15 7.08 35.33 6.91 35.56 6.91C35.79 6.91 35.97 7.08 35.97 7.32L35.97 7.96C35.97 8.13 35.79 8.3 35.56 8.3Z" fill="#1A1A1A" fill-opacity="1.000000" fill-rule="nonzero"/>
		</g>
	</g>
</svg>
