<svg width="76.630859" height="40.236572" viewBox="0 0 76.6309 40.2366" fill="none" xmlns="http://www.w3.org/2000/svg" xmlns:xlink="http://www.w3.org/1999/xlink">
	<desc>
			Created with Pixso.
	</desc>
	<defs/>
	<path id="Vector" d="M5.03 32.7L71.67 32.5L71.68 34.54L5.04 34.75L5.03 32.7Z" fill="#002B55" fill-opacity="1.000000" fill-rule="evenodd"/>
	<path id="Vector" d="M8.79 18.16L12.17 15.41L15.57 18.14L15.63 39.8L8.85 39.82L8.79 18.16ZM17.48 13.11L20.86 10.36L24.26 13.08L24.34 39.77L17.56 39.79L17.48 13.11ZM26.17 7.97L29.56 5.22L32.95 7.95L33.05 39.77L26.27 39.79L26.17 7.97ZM34.87 2.86L38.25 0.11L41.65 2.84L41.76 39.72L34.98 39.74L34.87 2.86ZM43.59 7.91L46.97 5.17L50.37 7.89L50.47 39.72L43.69 39.74L43.59 7.91ZM52.34 13L55.73 10.25L59.12 12.98L59.21 39.66L52.43 39.68L52.34 13ZM61.07 18L64.45 15.25L67.85 17.98L67.92 39.63L61.14 39.66L61.07 18ZM69.79 23L73.17 20.25L76.57 22.98L76.62 39.61L69.85 39.63L69.79 23ZM0.09 23.22L3.47 20.47L6.87 23.19L6.92 39.82L0.14 39.84L0.09 23.22Z" fill="#002B55" fill-opacity="1.000000" fill-rule="evenodd"/>
	<path id="Vector" d="M0.11 38.02L76.59 37.78L76.6 39.99L0.12 40.23L0.11 38.02Z" fill="#002B55" fill-opacity="1.000000" fill-rule="evenodd"/>
	<path id="Vector" d="M5.01 26.93L71.65 26.72L71.66 28.77L5.02 28.97L5.01 26.93Z" fill="#002B55" fill-opacity="1.000000" fill-rule="evenodd"/>
	<path id="Vector" d="M14.01 21.13L62.62 20.98L62.63 23.02L14.01 23.17L14.01 21.13Z" fill="#002B55" fill-opacity="1.000000" fill-rule="evenodd"/>
	<path id="Vector" d="M21.57 15.33L55.02 15.23L55.03 17.27L21.57 17.38L21.57 15.33Z" fill="#002B55" fill-opacity="1.000000" fill-rule="evenodd"/>
	<path id="Vector" d="M28.91 9.53L47.65 9.48L47.65 11.52L28.91 11.58L28.91 9.53Z" fill="#002B55" fill-opacity="1.000000" fill-rule="evenodd"/>
</svg>
