<svg width="80.000000" height="83.000000" viewBox="0 0 80 83" fill="none" xmlns="http://www.w3.org/2000/svg" xmlns:xlink="http://www.w3.org/1999/xlink">
	<desc>
			Created with Pixso.
	</desc>
	<defs>
		<clipPath id="clip259_285">
			<rect id="Frame" rx="0.000000" width="79.298248" height="55.438595" transform="translate(0.350877 0.350877)" fill="white" fill-opacity="0"/>
		</clipPath>
	</defs>
	<path id="Kochi" d="M30.04 78.82Q30.84 79.09 31.73 79.09Q32.68 79.09 33.51 78.79Q33.89 78.66 34.25 78.46Q34.79 78.15 35.22 77.73Q35.7 77.27 36.04 76.68Q36.18 76.44 36.29 76.19Q36.7 75.24 36.7 74.11Q36.7 72.97 36.28 72.02Q36.18 71.78 36.04 71.55Q35.71 70.97 35.25 70.52Q34.8 70.09 34.25 69.78Q33.88 69.57 33.49 69.43Q32.67 69.14 31.73 69.14Q30.85 69.14 30.05 69.41Q29.63 69.55 29.23 69.78Q28.7 70.07 28.27 70.48Q27.78 70.94 27.43 71.55Q27.29 71.79 27.18 72.04Q26.76 72.98 26.76 74.11Q26.76 75.23 27.17 76.18Q27.28 76.43 27.43 76.68Q27.79 77.3 28.29 77.77Q28.71 78.17 29.23 78.46Q29.62 78.68 30.04 78.82ZM38.15 72.04Q37.74 72.98 37.74 74.11Q37.74 75.25 38.16 76.2Q38.27 76.44 38.4 76.67Q38.77 77.29 39.27 77.76Q39.69 78.16 40.2 78.44Q40.53 78.63 40.87 78.76Q41.73 79.08 42.71 79.08Q43.91 79.08 44.9 78.63Q45.19 78.5 45.47 78.33Q45.93 78.04 46.3 77.66Q46.89 77.04 47.23 76.17L45.31 76.17Q45.02 76.77 44.54 77.13Q44.41 77.23 44.26 77.32Q43.59 77.69 42.71 77.69Q41.88 77.69 41.21 77.37Q41.1 77.32 40.99 77.25Q40.72 77.1 40.5 76.9Q40.08 76.53 39.8 76Q39.38 75.19 39.38 74.11Q39.38 73.03 39.8 72.22Q40.09 71.68 40.52 71.3Q40.74 71.12 40.99 70.97Q41.08 70.92 41.17 70.87Q41.86 70.54 42.71 70.54Q43.58 70.54 44.25 70.91Q44.25 70.91 44.26 70.92Q44.41 71 44.54 71.1Q45.02 71.46 45.31 72.06L47.23 72.06Q46.89 71.2 46.3 70.58Q45.93 70.19 45.47 69.9Q45.17 69.72 44.86 69.57Q43.88 69.14 42.71 69.14Q41.82 69.14 41.03 69.41Q40.6 69.55 40.21 69.78Q39.68 70.07 39.25 70.48Q38.76 70.94 38.4 71.55Q38.26 71.79 38.15 72.04ZM20.03 74.64L23.79 79L25.88 79L21.58 74.14L25.81 69.26L23.81 69.26L20.03 73.7L20.03 69.26L18.43 69.26L18.43 79L20.03 79L20.03 74.64ZM56.86 79L56.86 69.26L55.27 69.26L55.27 73.44L50.69 73.44L50.69 69.26L49.09 69.26L49.09 79L50.69 79L50.69 74.74L55.27 74.74L55.27 79L56.86 79ZM60.56 79L60.56 69.26L58.96 69.26L58.96 79L60.56 79ZM33.21 77.39Q32.55 77.71 31.73 77.71Q30.9 77.71 30.23 77.38Q30.12 77.33 30.01 77.27Q29.76 77.12 29.55 76.93Q29.11 76.56 28.83 76.01Q28.4 75.19 28.4 74.11Q28.4 73.03 28.83 72.22Q29.11 71.68 29.55 71.3Q29.76 71.12 30.01 70.97Q30.1 70.92 30.2 70.87Q30.88 70.54 31.73 70.54Q32.57 70.54 33.25 70.86Q33.35 70.92 33.45 70.97Q33.72 71.12 33.94 71.32Q34.36 71.69 34.64 72.22Q35.06 73.03 35.06 74.11Q35.06 75.19 34.64 76.01Q34.36 76.54 33.94 76.91Q33.72 77.11 33.45 77.27Q33.34 77.33 33.21 77.39Z" fill="#1A1A1A" fill-opacity="1.000000" fill-rule="evenodd"/>
	<path id="Kochi" d="M30.04 78.82Q30.84 79.09 31.73 79.09Q32.68 79.09 33.51 78.79Q33.89 78.66 34.25 78.46Q34.79 78.15 35.22 77.73Q35.7 77.27 36.04 76.68Q36.18 76.44 36.29 76.19Q36.7 75.24 36.7 74.11Q36.7 72.97 36.28 72.02Q36.18 71.78 36.04 71.55Q35.71 70.97 35.25 70.52Q34.8 70.09 34.25 69.78Q33.88 69.57 33.49 69.43Q32.67 69.14 31.73 69.14Q30.85 69.14 30.05 69.41Q29.63 69.55 29.23 69.78Q28.7 70.07 28.27 70.48Q27.78 70.94 27.43 71.55Q27.29 71.79 27.18 72.04Q26.76 72.98 26.76 74.11Q26.76 75.23 27.17 76.18Q27.28 76.43 27.43 76.68Q27.79 77.3 28.29 77.77Q28.71 78.17 29.23 78.46Q29.62 78.68 30.04 78.82ZM38.15 72.04Q37.74 72.98 37.74 74.11Q37.74 75.25 38.16 76.2Q38.27 76.44 38.4 76.67Q38.77 77.29 39.27 77.76Q39.69 78.16 40.2 78.44Q40.53 78.63 40.87 78.76Q41.73 79.08 42.71 79.08Q43.91 79.08 44.9 78.63Q45.19 78.5 45.47 78.33Q45.93 78.04 46.3 77.66Q46.89 77.04 47.23 76.17L45.31 76.17Q45.02 76.77 44.54 77.13Q44.41 77.23 44.26 77.32Q43.59 77.69 42.71 77.69Q41.88 77.69 41.21 77.37Q41.1 77.32 40.99 77.25Q40.72 77.1 40.5 76.9Q40.08 76.53 39.8 76Q39.38 75.19 39.38 74.11Q39.38 73.03 39.8 72.22Q40.09 71.68 40.52 71.3Q40.74 71.12 40.99 70.97Q41.08 70.92 41.17 70.87Q41.86 70.54 42.71 70.54Q43.58 70.54 44.25 70.91Q44.25 70.91 44.26 70.92Q44.41 71 44.54 71.1Q45.02 71.46 45.31 72.06L47.23 72.06Q46.89 71.2 46.3 70.58Q45.93 70.19 45.47 69.9Q45.17 69.72 44.86 69.57Q43.88 69.14 42.71 69.14Q41.82 69.14 41.03 69.41Q40.6 69.55 40.21 69.78Q39.68 70.07 39.25 70.48Q38.76 70.94 38.4 71.55Q38.26 71.79 38.15 72.04ZM20.03 74.64L23.79 79L25.88 79L21.58 74.14L25.81 69.26L23.81 69.26L20.03 73.7L20.03 69.26L18.43 69.26L18.43 79L20.03 79L20.03 74.64ZM56.86 79L56.86 69.26L55.27 69.26L55.27 73.44L50.69 73.44L50.69 69.26L49.09 69.26L49.09 79L50.69 79L50.69 74.74L55.27 74.74L55.27 79L56.86 79ZM60.56 79L60.56 69.26L58.96 69.26L58.96 79L60.56 79ZM33.21 77.39Q32.55 77.71 31.73 77.71Q30.9 77.71 30.23 77.38Q30.12 77.33 30.01 77.27Q29.76 77.12 29.55 76.93Q29.11 76.56 28.83 76.01Q28.4 75.19 28.4 74.11Q28.4 73.03 28.83 72.22Q29.11 71.68 29.55 71.3Q29.76 71.12 30.01 70.97Q30.1 70.92 30.2 70.87Q30.88 70.54 31.73 70.54Q32.57 70.54 33.25 70.86Q33.35 70.92 33.45 70.97Q33.72 71.12 33.94 71.32Q34.36 71.69 34.64 72.22Q35.06 73.03 35.06 74.11Q35.06 75.19 34.64 76.01Q34.36 76.54 33.94 76.91Q33.72 77.11 33.45 77.27Q33.34 77.33 33.21 77.39Z" fill="#000000" fill-opacity="0.200000" fill-rule="evenodd"/>
	<g opacity="0.500000">
		<rect id="Frame" rx="0.000000" width="79.298248" height="55.438595" transform="translate(0.350877 0.350877)" fill="#FFFFFF" fill-opacity="0"/>
		<g clip-path="url(#clip259_285)">
			<path id="Vector" d="M39.56 5C36.67 5 33.85 5.32 31.09 5.89C30.97 5.89 30.77 6.15 30.77 6.28L30.77 7.62C29.24 8.01 27.76 8.39 26.29 8.97C25.65 8.97 25.2 8.39 25.2 7.75C25.2 7.5 25.07 7.37 24.81 7.37C24.56 7.37 24.43 7.5 24.43 7.75C24.43 8.71 25.13 9.48 26.03 9.67L26.03 19.29L25.26 19.29C25.26 14.48 22.7 10.25 18.53 8.01C18.85 7.94 19.24 7.88 19.62 7.88C21.16 7.88 22.57 8.78 23.21 10.12C23.27 10.25 23.47 10.38 23.59 10.38L23.72 10.38C23.85 10.32 24.04 10.06 23.85 9.8C23.08 8.14 21.35 7.11 19.56 7.11C19.11 7.11 18.6 7.17 18.15 7.37C19.43 6.66 20.84 6.41 22.38 6.66C22.63 6.66 22.76 6.6 22.83 6.34C22.89 6.08 22.76 5.96 22.51 5.89C20.45 5.57 18.27 6.15 16.67 7.43C16.61 7.43 16.61 7.5 16.61 7.5C16.03 7.56 15.52 7.88 15.13 8.26C14.49 8.91 14.11 9.8 14.11 10.76C14.11 11.02 14.24 11.15 14.49 11.15C14.75 11.15 14.88 11.02 14.88 10.76C14.88 10.06 15.2 9.35 15.65 8.84C15.9 8.58 16.1 8.52 16.42 8.39L16.48 8.39C16.22 8.84 16.03 9.48 16.03 10.06C16.03 11.34 16.74 12.62 17.89 13.26C17.95 13.26 18.02 13.33 18.02 13.33C18.15 13.33 18.27 13.26 18.34 13.07C18.4 12.88 18.34 12.69 18.21 12.5C17.31 12.05 16.74 11.08 16.74 10.06C16.74 9.48 16.86 9.03 17.12 8.65C19.49 11.15 20.97 14.42 21.1 17.88C20.45 17.43 20.01 16.79 19.56 16.15C19.56 16.15 19.56 16.08 19.49 16.08L19.43 15.89L19.04 15.89L18.98 15.96L18.92 16.02C18.27 17.17 17.95 18.46 17.95 19.74C17.95 22.69 19.68 25.25 22.18 26.53L14.3 26.53C14.04 26.53 13.92 26.66 13.92 26.92C13.92 27.17 14.04 27.3 14.3 27.3L64.68 27.3C64.94 27.3 65.07 27.17 65.07 26.92C65 26.66 64.81 26.53 64.62 26.53L56.8 26.53C59.3 25.25 61.03 22.69 61.03 19.74C61.03 18.52 60.71 17.24 60.13 16.21C60.13 16.15 60.07 15.96 60 15.96C59.88 15.89 59.75 15.89 59.62 15.96L59.56 15.96L59.49 16.02C59.11 16.73 58.53 17.3 57.95 17.88C58.08 14.48 59.43 11.15 61.93 8.71C62.18 9.1 62.31 9.67 62.31 10.12C62.31 11.15 61.73 12.11 60.9 12.62C60.77 12.69 60.65 12.94 60.77 13.2C60.84 13.33 61.03 13.46 61.09 13.46C61.16 13.46 61.22 13.46 61.22 13.39C62.38 12.75 63.08 11.53 63.08 10.19C63.08 9.55 62.95 8.97 62.63 8.52L62.7 8.52L63.4 8.97C63.85 9.42 64.17 10.19 64.17 10.89C64.17 11.15 64.3 11.28 64.56 11.28C64.81 11.28 64.94 11.15 64.94 10.89C64.94 9.93 64.56 9.03 63.91 8.39C63.53 8.01 63.02 7.69 62.5 7.5C62.5 7.43 62.44 7.43 62.44 7.43C60.84 6.15 58.66 5.51 56.61 5.89C56.35 5.89 56.22 6.15 56.29 6.34C56.29 6.6 56.54 6.73 56.74 6.66C58.15 6.41 59.68 6.66 60.97 7.37C60.52 7.24 60 7.11 59.56 7.11C57.7 7.11 56.03 8.14 55.26 9.8C55.2 9.93 55.26 10.19 55.39 10.38L55.52 10.38C55.65 10.38 55.84 10.32 55.9 10.12C56.54 8.78 57.95 7.88 59.49 7.88C59.88 7.88 60.2 7.94 60.58 8.01C56.54 10.38 53.91 14.61 53.91 19.42L53.15 19.42L53.15 9.8C54.04 9.67 54.75 8.84 54.75 7.82C54.75 7.56 54.62 7.43 54.36 7.43C54.11 7.43 53.98 7.56 53.98 7.82C53.98 8.46 53.53 8.91 52.89 9.03C51.48 8.46 49.94 8.01 48.4 7.69L48.4 6.28C48.4 6.15 48.27 5.96 48.08 5.89C45.2 5.32 42.38 5 39.56 5ZM39.43 5.7C42.12 5.7 44.81 5.96 47.44 6.53L47.44 7.3C44.81 6.73 42.18 6.41 39.43 6.41C36.67 6.41 34.04 6.73 31.41 7.3L31.41 6.53C34.11 5.96 36.74 5.7 39.43 5.7ZM39.43 7.37C43.85 7.37 48.15 8.14 52.25 9.67L52.25 19.35L49.88 19.35L49.88 14.55C49.88 13.2 48.85 12.17 47.5 12.17C46.16 12.17 45.13 13.2 45.13 14.55L45.13 19.35L42.76 19.35L42.76 12.94C42.76 11.21 41.35 9.74 39.56 9.74C37.83 9.74 36.35 11.15 36.35 12.94L36.35 19.35L33.98 19.35L33.98 14.55C33.98 13.2 32.95 12.17 31.61 12.17C30.26 12.17 29.24 13.2 29.24 14.55L29.24 19.35L26.67 19.35L26.67 9.67C30.71 8.14 35.07 7.37 39.43 7.37ZM18.6 9.1C18.92 9.23 19.24 9.48 19.56 9.74L19.04 9.74C18.92 9.48 18.72 9.23 18.6 9.1ZM60.39 9.1C60.26 9.23 60.07 9.48 59.94 9.74L59.49 9.74C59.75 9.48 60.07 9.23 60.39 9.1ZM19.62 10.51L20.52 10.51C20.97 10.96 21.48 11.53 21.93 12.11L20.52 12.11C20.26 11.6 19.94 11.02 19.62 10.51ZM39.43 10.51C40.77 10.51 41.8 11.53 41.8 12.88L41.8 19.29L36.99 19.29L36.99 12.88C37.06 11.6 38.08 10.51 39.43 10.51ZM58.47 10.51L59.36 10.51C59.04 10.96 58.72 11.53 58.47 12.11L57.06 12.11C57.5 11.6 58.02 11.02 58.47 10.51ZM20.84 12.94L22.51 12.94C22.83 13.39 23.08 13.97 23.27 14.55L21.35 14.55C21.22 13.97 21.03 13.52 20.84 12.94ZM31.48 12.94C32.38 12.94 33.08 13.65 33.08 14.55L33.08 19.35L29.88 19.35L29.88 14.55C29.88 13.65 30.58 12.94 31.48 12.94ZM47.44 12.94C48.34 12.94 49.04 13.65 49.04 14.55L49.04 19.35L45.84 19.35L45.84 14.55C45.84 13.65 46.54 12.94 47.44 12.94ZM56.48 12.94L58.15 12.94C57.89 13.52 57.76 13.97 57.57 14.55L55.65 14.55C55.9 13.97 56.16 13.39 56.48 12.94ZM21.54 15.32L23.59 15.32C23.72 15.76 23.92 16.34 23.98 16.92L21.74 16.92C21.8 16.41 21.67 15.89 21.54 15.32ZM55.39 15.32L57.44 15.32C57.38 15.89 57.18 16.34 57.18 16.92L54.94 16.92C55.07 16.41 55.2 15.83 55.39 15.32ZM19.24 17.11C19.81 17.82 20.45 18.46 21.16 18.97L21.29 19.1C22.25 19.67 23.34 20.06 24.49 20.12L27.38 20.12L27.38 21.02C26.48 21.15 25.77 21.98 25.77 22.94C25.77 24.03 26.67 24.93 27.76 24.93C28.85 24.93 29.75 24.03 29.75 22.94C29.75 21.98 29.04 21.21 28.15 21.02L28.15 20.12L34.56 20.12L34.56 21.02C33.66 21.15 32.95 21.98 32.95 22.94C32.95 24.03 33.85 24.93 34.94 24.93C36.03 24.93 36.93 24.03 36.93 22.94C36.93 21.98 36.22 21.21 35.33 21.02L35.33 20.12L43.34 20.12L43.34 21.02C42.44 21.15 41.74 21.98 41.74 22.94C41.74 24.03 42.63 24.93 43.72 24.93C44.81 24.93 45.71 24.03 45.71 22.94C45.71 21.98 45 21.21 44.11 21.02L44.11 20.12L50.52 20.12L50.52 21.02C49.62 21.15 48.91 21.98 48.91 22.94C48.91 24.03 49.81 24.93 50.9 24.93C51.99 24.93 52.89 24.03 52.89 22.94C52.89 21.98 52.18 21.21 51.29 21.02L51.29 20.12L54.24 20.12C56.41 19.99 58.34 18.84 59.62 17.17C59.94 17.94 60.2 18.91 60.2 19.8C60.2 23.58 57.18 26.6 53.4 26.6L25.45 26.6L25.45 26.53C21.67 26.53 18.66 23.52 18.66 19.74C18.66 18.84 18.79 17.88 19.24 17.11ZM21.86 17.75L24.17 17.75C24.24 18.2 24.24 18.78 24.24 19.29C23.34 19.23 22.57 18.91 21.86 18.52L21.86 17.75ZM54.81 17.75L57.18 17.75L57.18 18.46C56.48 18.84 55.65 19.16 54.81 19.23C54.75 18.78 54.75 18.2 54.81 17.75ZM27.83 21.73C28.47 21.73 29.04 22.3 29.04 22.94C29.04 23.58 28.47 24.16 27.83 24.16C27.18 24.16 26.61 23.58 26.61 22.94C26.61 22.3 27.18 21.73 27.83 21.73ZM35.07 21.73C35.71 21.73 36.29 22.3 36.29 22.94C36.29 23.58 35.71 24.16 35.07 24.16C34.43 24.16 33.85 23.58 33.85 22.94C33.85 22.3 34.43 21.73 35.07 21.73ZM43.85 21.73C44.49 21.73 45.07 22.3 45.07 22.94C45.07 23.58 44.49 24.16 43.85 24.16C43.21 24.16 42.63 23.58 42.63 22.94C42.63 22.3 43.21 21.73 43.85 21.73ZM51.03 21.73C51.67 21.73 52.25 22.3 52.25 22.94C52.25 23.58 51.67 24.16 51.03 24.16C50.39 24.16 49.88 23.58 49.88 22.94C49.88 22.3 50.39 21.73 51.03 21.73ZM14.24 30.51C13.98 30.51 13.85 30.64 13.85 30.89C13.85 31.15 14.11 31.28 14.24 31.28L16.61 31.28C16.86 31.28 16.99 31.15 16.99 30.89C16.99 30.64 16.86 30.51 16.61 30.51L14.24 30.51ZM19.04 30.51C18.79 30.51 18.66 30.64 18.66 30.89C18.66 31.15 18.79 31.28 19.04 31.28L37.44 31.28C37.7 31.28 37.83 31.15 37.83 30.89C37.83 30.64 37.7 30.51 37.44 30.51L19.04 30.51ZM39.88 30.51C39.62 30.51 39.49 30.64 39.49 30.89C39.49 31.15 39.62 31.28 39.88 31.28L43.85 31.28C44.11 31.28 44.24 31.15 44.24 30.89C44.24 30.64 44.11 30.51 43.85 30.51L39.88 30.51ZM46.22 30.51C45.97 30.51 45.84 30.64 45.84 30.89C45.84 31.15 45.97 31.28 46.22 31.28L64.62 31.28C64.88 31.28 65 31.15 65 30.89C65 30.64 64.88 30.51 64.62 30.51L46.22 30.51ZM14.24 34.55C13.98 34.55 13.85 34.67 13.85 34.93C13.85 35.19 14.11 35.31 14.24 35.31L22.25 35.31C22.51 35.31 22.63 35.19 22.63 34.93C22.63 34.67 22.51 34.55 22.25 34.55L14.24 34.55ZM24.62 34.55C24.49 34.55 24.24 34.67 24.24 34.93C24.24 35.19 24.36 35.31 24.62 35.31L56.61 35.31C56.86 35.31 56.99 35.19 56.99 34.93C56.99 34.67 56.86 34.55 56.61 34.55L24.62 34.55ZM59.04 34.55C58.79 34.55 58.66 34.67 58.66 34.93C58.66 35.19 58.79 35.31 59.04 35.31L64.62 35.31C64.88 35.31 65 35.19 65 34.93C65 34.67 64.88 34.55 64.62 34.55L59.04 34.55ZM14.24 38.52C13.98 38.52 13.85 38.65 13.85 38.9C13.85 39.16 14.11 39.29 14.24 39.29L18.21 39.29C18.47 39.29 18.6 39.16 18.6 38.9C18.6 38.65 18.47 38.52 18.21 38.52L14.24 38.52ZM20.65 38.52C20.39 38.52 20.26 38.65 20.26 38.9C20.26 39.16 20.39 39.29 20.65 39.29L40.65 39.29C40.9 39.29 41.03 39.16 41.03 38.9C41.03 38.65 40.9 38.52 40.65 38.52L20.65 38.52ZM43.08 38.52C42.83 38.52 42.7 38.65 42.7 38.9C42.7 39.16 42.83 39.29 43.08 39.29L50.26 39.29C50.52 39.29 50.65 39.16 50.65 38.9C50.65 38.65 50.52 38.52 50.26 38.52L43.08 38.52ZM52.63 38.52C52.38 38.52 52.25 38.65 52.25 38.9C52.25 39.16 52.38 39.29 52.63 39.29L64.56 39.29C64.81 39.29 64.94 39.16 64.94 38.9C64.94 38.65 64.88 38.52 64.62 38.52L52.63 38.52ZM14.24 42.56C13.98 42.56 13.85 42.69 13.85 42.94C13.85 43.2 14.11 43.33 14.24 43.33L27.83 43.33C28.08 43.33 28.21 43.2 28.21 42.94C28.21 42.69 28.08 42.56 27.83 42.56L14.24 42.56ZM30.26 42.56C30 42.56 29.88 42.69 29.88 42.94C29.88 43.2 30.13 43.33 30.26 43.33L34.24 43.33C34.49 43.33 34.62 43.2 34.62 42.94C34.62 42.69 34.49 42.56 34.24 42.56L30.26 42.56ZM36.67 42.56C36.41 42.56 36.29 42.69 36.29 42.94C36.29 43.2 36.41 43.33 36.67 43.33L55.07 43.33C55.32 43.33 55.45 43.2 55.45 42.94C55.45 42.69 55.32 42.56 55.07 42.56L36.67 42.56ZM57.44 42.56C57.18 42.56 57.06 42.69 57.06 42.94C57.06 43.2 57.18 43.33 57.44 43.33L63.02 43.33C63.27 43.33 63.4 43.2 63.4 42.94C63.4 42.69 63.27 42.56 63.02 42.56L57.44 42.56ZM14.24 46.53C13.98 46.53 13.85 46.66 13.85 46.92C13.85 47.17 13.98 47.3 14.24 47.3L18.21 47.3C18.47 47.3 18.6 47.17 18.6 46.92C18.6 46.66 18.47 46.53 18.21 46.53L14.24 46.53ZM20.65 46.53C20.39 46.53 20.26 46.66 20.26 46.92C20.26 47.17 20.39 47.3 20.65 47.3L24.62 47.3C24.88 47.3 25.01 47.17 25.01 46.92C25.01 46.66 24.88 46.53 24.62 46.53L20.65 46.53ZM27.06 46.53C26.8 46.53 26.67 46.66 26.67 46.92C26.67 47.17 26.8 47.3 27.06 47.3L45.45 47.3C45.71 47.3 45.84 47.17 45.84 46.92C45.84 46.66 45.71 46.53 45.45 46.53L27.06 46.53ZM47.83 46.53C47.57 46.53 47.44 46.66 47.44 46.92C47.44 47.17 47.57 47.3 47.83 47.3L64.62 47.3C64.88 47.3 65 47.17 65 46.92C65 46.66 64.88 46.53 64.62 46.53L47.83 46.53ZM15.84 50.51C15.58 50.51 15.45 50.64 15.45 50.89C15.45 51.15 15.58 51.28 15.84 51.28L21.42 51.28C21.67 51.28 21.8 51.15 21.8 50.89C21.8 50.64 21.67 50.51 21.42 50.51L15.84 50.51ZM23.85 50.51C23.59 50.51 23.47 50.64 23.47 50.89C23.47 51.15 23.59 51.28 23.85 51.28L42.25 51.28C42.5 51.28 42.63 51.15 42.63 50.89C42.63 50.64 42.5 50.51 42.25 50.51L23.85 50.51ZM44.62 50.51C44.36 50.51 44.24 50.64 44.24 50.89C44.24 51.15 44.36 51.28 44.62 51.28L48.59 51.28C48.85 51.28 48.98 51.15 48.98 50.89C48.98 50.64 48.85 50.51 48.59 50.51L44.62 50.51ZM51.03 50.51C50.77 50.51 50.65 50.64 50.65 50.89C50.65 51.15 50.77 51.28 51.03 51.28L64.62 51.28C64.88 51.28 65 51.15 65 50.89C65 50.64 64.88 50.51 64.62 50.51L51.03 50.51Z" fill="#1A1A1A" fill-opacity="1.000000" fill-rule="nonzero"/>
		</g>
	</g>
</svg>
