<svg width="24.000000" height="24.000000" viewBox="0 0 24 24" fill="none" xmlns="http://www.w3.org/2000/svg" xmlns:xlink="http://www.w3.org/1999/xlink">
	<desc>
			Created with Pixso.
	</desc>
	<defs>
		<clipPath id="clip243_79">
			<rect id="Frame" rx="0.000000" width="23.000000" height="23.000000" transform="translate(0.500000 0.500000)" fill="white" fill-opacity="0"/>
		</clipPath>
	</defs>
	<rect id="Frame" rx="0.000000" width="23.000000" height="23.000000" transform="translate(0.500000 0.500000)" fill="#FFFFFF" fill-opacity="0"/>
	<g clip-path="url(#clip243_79)">
		<path id="Vector" d="M2.66 9.83C2.48 8.75 2.39 8.21 2.68 7.85C2.97 7.5 3.51 7.5 4.58 7.5L19.41 7.5C20.48 7.5 21.02 7.5 21.31 7.85C21.6 8.21 21.51 8.75 21.33 9.83L20.12 17.01C19.72 19.39 19.52 20.58 18.71 21.29C17.89 22 16.72 22 14.37 22L9.62 22C7.27 22 6.1 22 5.28 21.29C4.47 20.58 4.27 19.39 3.87 17.01L2.66 9.83Z" stroke="#1A1A1A" stroke-opacity="1.000000" stroke-width="1.500000"/>
		<path id="Vector" d="M2.66 9.83C2.48 8.75 2.39 8.21 2.68 7.85C2.97 7.5 3.51 7.5 4.58 7.5L19.41 7.5C20.48 7.5 21.02 7.5 21.31 7.85C21.6 8.21 21.51 8.75 21.33 9.83L20.12 17.01C19.72 19.39 19.52 20.58 18.71 21.29C17.89 22 16.72 22 14.37 22L9.62 22C7.27 22 6.1 22 5.28 21.29C4.47 20.58 4.27 19.39 3.87 17.01L2.66 9.83Z" stroke="#000000" stroke-opacity="0.200000" stroke-width="1.500000"/>
		<path id="Vector" d="M17.5 7.5C17.5 4.46 15.03 2 12 2C8.96 2 6.5 4.46 6.5 7.5" stroke="#1A1A1A" stroke-opacity="1.000000" stroke-width="1.500000"/>
		<path id="Vector" d="M17.5 7.5C17.5 4.46 15.03 2 12 2C8.96 2 6.5 4.46 6.5 7.5" stroke="#000000" stroke-opacity="0.200000" stroke-width="1.500000"/>
	</g>
</svg>
