<svg width="38.000000" height="38.000000" viewBox="0 0 38 38" fill="none" xmlns="http://www.w3.org/2000/svg" xmlns:xlink="http://www.w3.org/1999/xlink">
	<desc>
			Created with Pixso.
	</desc>
	<defs>
		<clipPath id="clip243_327">
			<rect id="Youtube" width="18.000000" height="18.000000" transform="translate(10.000000 10.000000)" fill="white" fill-opacity="0"/>
		</clipPath>
	</defs>
	<circle id="Ellipse 6" cx="19.000000" cy="19.000000" r="19.000000" fill="#F2F4F6" fill-opacity="1.000000"/>
	<circle id="Ellipse 6" cx="19.000000" cy="19.000000" r="18.500000" stroke="#000000" stroke-opacity="0" stroke-width="1.000000"/>
	<rect id="Youtube" width="18.000000" height="18.000000" transform="translate(10.000000 10.000000)" fill="#FFFFFF" fill-opacity="0"/>
	<g clip-path="url(#clip243_327)">
		<path id="Vector" d="M27.24 17.28C27.28 16.2 27.05 15.14 26.56 14.18C26.23 13.79 25.78 13.52 25.27 13.43C23.18 13.24 21.09 13.16 18.99 13.2C16.91 13.16 14.82 13.24 12.74 13.42C12.33 13.5 11.95 13.69 11.64 13.98C10.97 14.6 10.89 15.66 10.82 16.56C10.71 18.18 10.71 19.81 10.82 21.42C10.84 21.93 10.92 22.43 11.04 22.92C11.13 23.3 11.32 23.65 11.58 23.94C11.88 24.25 12.27 24.45 12.69 24.53C14.31 24.73 15.94 24.81 17.57 24.78C20.19 24.81 22.5 24.78 25.22 24.57C25.65 24.49 26.05 24.29 26.37 23.98C26.58 23.77 26.73 23.51 26.82 23.23C27.09 22.41 27.22 21.55 27.21 20.68C27.24 20.26 27.24 17.73 27.24 17.28ZM17.3 21.13L17.3 16.49L21.74 18.82C20.49 19.51 18.85 20.29 17.3 21.13Z" fill="#1A1A1A" fill-opacity="1.000000" fill-rule="nonzero"/>
		<path id="Vector" d="M27.24 17.28C27.28 16.2 27.05 15.14 26.56 14.18C26.23 13.79 25.78 13.52 25.27 13.43C23.18 13.24 21.09 13.16 18.99 13.2C16.91 13.16 14.82 13.24 12.74 13.42C12.33 13.5 11.95 13.69 11.64 13.98C10.97 14.6 10.89 15.66 10.82 16.56C10.71 18.18 10.71 19.81 10.82 21.42C10.84 21.93 10.92 22.43 11.04 22.92C11.13 23.3 11.32 23.65 11.58 23.94C11.88 24.25 12.27 24.45 12.69 24.53C14.31 24.73 15.94 24.81 17.57 24.78C20.19 24.81 22.5 24.78 25.22 24.57C25.65 24.49 26.05 24.29 26.37 23.98C26.58 23.77 26.73 23.51 26.82 23.23C27.09 22.41 27.22 21.55 27.21 20.68C27.24 20.26 27.24 17.73 27.24 17.28ZM17.3 21.13L17.3 16.49L21.74 18.82C20.49 19.51 18.85 20.29 17.3 21.13Z" fill="#000000" fill-opacity="0.200000" fill-rule="nonzero"/>
	</g>
</svg>
