<svg width="38.000000" height="38.000000" viewBox="0 0 38 38" fill="none" xmlns="http://www.w3.org/2000/svg" xmlns:xlink="http://www.w3.org/1999/xlink">
	<desc>
			Created with Pixso.
	</desc>
	<defs>
		<clipPath id="clip243_324">
			<rect id="Insta" width="18.000000" height="18.000000" transform="translate(10.000000 10.000000)" fill="white" fill-opacity="0"/>
		</clipPath>
	</defs>
	<circle id="Ellipse 6" cx="19.000000" cy="19.000000" r="19.000000" fill="#F2F4F6" fill-opacity="1.000000"/>
	<circle id="Ellipse 6" cx="19.000000" cy="19.000000" r="18.500000" stroke="#000000" stroke-opacity="0" stroke-width="1.000000"/>
	<rect id="Insta" width="18.000000" height="18.000000" transform="translate(10.000000 10.000000)" fill="#FFFFFF" fill-opacity="0"/>
	<g clip-path="url(#clip243_324)">
		<path id="Vector" d="M23 14.09C22.82 14.09 22.65 14.14 22.5 14.24C22.35 14.34 22.24 14.48 22.17 14.65C22.1 14.81 22.08 14.99 22.12 15.17C22.15 15.34 22.24 15.5 22.36 15.63C22.49 15.75 22.65 15.84 22.83 15.87C23 15.91 23.18 15.89 23.35 15.82C23.51 15.75 23.65 15.64 23.75 15.49C23.85 15.34 23.9 15.17 23.9 14.99C23.9 14.75 23.81 14.52 23.64 14.35C23.47 14.19 23.24 14.09 23 14.09ZM26.45 15.91C26.44 15.28 26.32 14.67 26.11 14.08C25.92 13.58 25.62 13.13 25.24 12.76C24.86 12.37 24.41 12.08 23.91 11.89C23.33 11.67 22.71 11.55 22.09 11.54C21.29 11.5 21.04 11.5 19 11.5C16.96 11.5 16.7 11.5 15.91 11.54C15.28 11.55 14.67 11.67 14.08 11.89C13.58 12.08 13.13 12.37 12.76 12.76C12.37 13.13 12.08 13.58 11.89 14.08C11.67 14.67 11.55 15.28 11.54 15.91C11.5 16.7 11.5 16.96 11.5 19C11.5 21.04 11.5 21.29 11.54 22.09C11.55 22.71 11.67 23.33 11.89 23.91C12.08 24.41 12.37 24.86 12.76 25.24C13.13 25.62 13.58 25.91 14.08 26.1C14.67 26.32 15.28 26.44 15.91 26.45C16.7 26.5 16.96 26.5 19 26.5C21.04 26.5 21.29 26.5 22.09 26.45C22.71 26.44 23.33 26.32 23.91 26.1C24.41 25.92 24.86 25.62 25.24 25.24C25.62 24.86 25.92 24.41 26.11 23.91C26.32 23.32 26.44 22.71 26.45 22.09C26.45 21.29 26.5 21.04 26.5 19C26.5 16.96 26.5 16.7 26.45 15.91ZM25.1 22C25.1 22.47 25.01 22.94 24.85 23.39C24.73 23.72 24.53 24.01 24.28 24.25C24.04 24.5 23.75 24.69 23.42 24.82C22.97 24.98 22.5 25.07 22.03 25.07C21.28 25.11 21 25.12 19.03 25.12C17.05 25.12 16.78 25.12 16.03 25.07C15.53 25.08 15.04 25 14.57 24.85C14.26 24.72 13.98 24.53 13.75 24.28C13.5 24.04 13.31 23.75 13.19 23.42C13.01 22.97 12.91 22.48 12.89 22C12.89 21.25 12.85 20.97 12.85 19C12.85 17.02 12.85 16.75 12.89 16C12.89 15.51 12.98 15.03 13.15 14.57C13.29 14.25 13.49 13.97 13.75 13.75C13.97 13.49 14.26 13.28 14.57 13.15C15.03 12.98 15.51 12.89 16 12.89C16.75 12.89 17.02 12.85 19 12.85C20.97 12.85 21.25 12.85 22 12.89C22.47 12.9 22.94 12.98 23.39 13.15C23.73 13.27 24.04 13.48 24.28 13.75C24.53 13.98 24.72 14.26 24.85 14.57C25.01 15.03 25.1 15.51 25.1 16C25.14 16.75 25.15 17.02 25.15 19C25.15 20.97 25.14 21.25 25.1 22ZM19 15.15C18.24 15.15 17.49 15.38 16.86 15.8C16.23 16.22 15.74 16.83 15.45 17.53C15.16 18.23 15.08 19.01 15.23 19.75C15.38 20.5 15.75 21.18 16.29 21.72C16.82 22.26 17.51 22.62 18.26 22.77C19 22.92 19.77 22.84 20.48 22.55C21.18 22.26 21.78 21.77 22.2 21.13C22.63 20.5 22.85 19.76 22.85 19C22.85 18.49 22.75 17.99 22.56 17.52C22.37 17.05 22.08 16.63 21.72 16.27C21.37 15.91 20.94 15.63 20.47 15.44C20 15.24 19.5 15.15 19 15.15ZM19 21.49C18.5 21.49 18.02 21.35 17.61 21.07C17.2 20.8 16.88 20.41 16.69 19.95C16.5 19.5 16.45 18.99 16.55 18.51C16.64 18.02 16.88 17.58 17.23 17.23C17.58 16.88 18.02 16.64 18.51 16.55C18.99 16.45 19.5 16.5 19.95 16.69C20.41 16.88 20.8 17.2 21.07 17.61C21.35 18.02 21.49 18.5 21.49 19C21.49 19.32 21.43 19.65 21.3 19.95C21.18 20.25 20.99 20.53 20.76 20.76C20.53 20.99 20.25 21.18 19.95 21.3C19.65 21.43 19.32 21.49 19 21.49Z" fill="#1A1A1A" fill-opacity="1.000000" fill-rule="nonzero"/>
		<path id="Vector" d="M23 14.09C22.82 14.09 22.65 14.14 22.5 14.24C22.35 14.34 22.24 14.48 22.17 14.65C22.1 14.81 22.08 14.99 22.12 15.17C22.15 15.34 22.24 15.5 22.36 15.63C22.49 15.75 22.65 15.84 22.83 15.87C23 15.91 23.18 15.89 23.35 15.82C23.51 15.75 23.65 15.64 23.75 15.49C23.85 15.34 23.9 15.17 23.9 14.99C23.9 14.75 23.81 14.52 23.64 14.35C23.47 14.19 23.24 14.09 23 14.09ZM26.45 15.91C26.44 15.28 26.32 14.67 26.11 14.08C25.92 13.58 25.62 13.13 25.24 12.76C24.86 12.37 24.41 12.08 23.91 11.89C23.33 11.67 22.71 11.55 22.09 11.54C21.29 11.5 21.04 11.5 19 11.5C16.96 11.5 16.7 11.5 15.91 11.54C15.28 11.55 14.67 11.67 14.08 11.89C13.58 12.08 13.13 12.37 12.76 12.76C12.37 13.13 12.08 13.58 11.89 14.08C11.67 14.67 11.55 15.28 11.54 15.91C11.5 16.7 11.5 16.96 11.5 19C11.5 21.04 11.5 21.29 11.54 22.09C11.55 22.71 11.67 23.33 11.89 23.91C12.08 24.41 12.37 24.86 12.76 25.24C13.13 25.62 13.58 25.91 14.08 26.1C14.67 26.32 15.28 26.44 15.91 26.45C16.7 26.5 16.96 26.5 19 26.5C21.04 26.5 21.29 26.5 22.09 26.45C22.71 26.44 23.33 26.32 23.91 26.1C24.41 25.92 24.86 25.62 25.24 25.24C25.62 24.86 25.92 24.41 26.11 23.91C26.32 23.32 26.44 22.71 26.45 22.09C26.45 21.29 26.5 21.04 26.5 19C26.5 16.96 26.5 16.7 26.45 15.91ZM25.1 22C25.1 22.47 25.01 22.94 24.85 23.39C24.73 23.72 24.53 24.01 24.28 24.25C24.04 24.5 23.75 24.69 23.42 24.82C22.97 24.98 22.5 25.07 22.03 25.07C21.28 25.11 21 25.12 19.03 25.12C17.05 25.12 16.78 25.12 16.03 25.07C15.53 25.08 15.04 25 14.57 24.85C14.26 24.72 13.98 24.53 13.75 24.28C13.5 24.04 13.31 23.75 13.19 23.42C13.01 22.97 12.91 22.48 12.89 22C12.89 21.25 12.85 20.97 12.85 19C12.85 17.02 12.85 16.75 12.89 16C12.89 15.51 12.98 15.03 13.15 14.57C13.29 14.25 13.49 13.97 13.75 13.75C13.97 13.49 14.26 13.28 14.57 13.15C15.03 12.98 15.51 12.89 16 12.89C16.75 12.89 17.02 12.85 19 12.85C20.97 12.85 21.25 12.85 22 12.89C22.47 12.9 22.94 12.98 23.39 13.15C23.73 13.27 24.04 13.48 24.28 13.75C24.53 13.98 24.72 14.26 24.85 14.57C25.01 15.03 25.1 15.51 25.1 16C25.14 16.75 25.15 17.02 25.15 19C25.15 20.97 25.14 21.25 25.1 22ZM19 15.15C18.24 15.15 17.49 15.38 16.86 15.8C16.23 16.22 15.74 16.83 15.45 17.53C15.16 18.23 15.08 19.01 15.23 19.75C15.38 20.5 15.75 21.18 16.29 21.72C16.82 22.26 17.51 22.62 18.26 22.77C19 22.92 19.77 22.84 20.48 22.55C21.18 22.26 21.78 21.77 22.2 21.13C22.63 20.5 22.85 19.76 22.85 19C22.85 18.49 22.75 17.99 22.56 17.52C22.37 17.05 22.08 16.63 21.72 16.27C21.37 15.91 20.94 15.63 20.47 15.44C20 15.24 19.5 15.15 19 15.15ZM19 21.49C18.5 21.49 18.02 21.35 17.61 21.07C17.2 20.8 16.88 20.41 16.69 19.95C16.5 19.5 16.45 18.99 16.55 18.51C16.64 18.02 16.88 17.58 17.23 17.23C17.58 16.88 18.02 16.64 18.51 16.55C18.99 16.45 19.5 16.5 19.95 16.69C20.41 16.88 20.8 17.2 21.07 17.61C21.35 18.02 21.49 18.5 21.49 19C21.49 19.32 21.43 19.65 21.3 19.95C21.18 20.25 20.99 20.53 20.76 20.76C20.53 20.99 20.25 21.18 19.95 21.3C19.65 21.43 19.32 21.49 19 21.49Z" fill="#000000" fill-opacity="0.200000" fill-rule="nonzero"/>
	</g>
</svg>
